<?xml version="1.0" encoding="UTF-8" standalone="no"?>
<!-- Created with Inkscape (http://www.inkscape.org/) -->

<svg
   xmlns:dc="http://purl.org/dc/elements/1.1/"
   xmlns:cc="http://creativecommons.org/ns#"
   xmlns:rdf="http://www.w3.org/1999/02/22-rdf-syntax-ns#"
   xmlns:svg="http://www.w3.org/2000/svg"
   xmlns="http://www.w3.org/2000/svg"
   xmlns:sodipodi="http://sodipodi.sourceforge.net/DTD/sodipodi-0.dtd"
   xmlns:inkscape="http://www.inkscape.org/namespaces/inkscape"
   width="147.88516mm"
   height="111.39001mm"
   viewBox="0 0 524.00254 394.68903"
   id="svg2"
   version="1.1"
   inkscape:version="0.91 r13725"
   sodipodi:docname="prototype.svg">
  <defs
     id="defs4" />
  <sodipodi:namedview
     id="base"
     pagecolor="#ffffff"
     bordercolor="#666666"
     borderopacity="1.0"
     inkscape:pageopacity="0.0"
     inkscape:pageshadow="2"
     inkscape:zoom="0.70710678"
     inkscape:cx="-18.302536"
     inkscape:cy="-29.887235"
     inkscape:document-units="px"
     inkscape:current-layer="layer1"
     showgrid="false"
     inkscape:window-width="1600"
     inkscape:window-height="821"
     inkscape:window-x="0"
     inkscape:window-y="27"
     inkscape:window-maximized="1"
     fit-margin-top="0"
     fit-margin-left="0"
     fit-margin-right="0"
     fit-margin-bottom="0" />
  <metadata
     id="metadata7">
    <rdf:RDF>
      <cc:Work
         rdf:about="">
        <dc:format>image/svg+xml</dc:format>
        <dc:type
           rdf:resource="http://purl.org/dc/dcmitype/StillImage" />
        <dc:title></dc:title>
      </cc:Work>
    </rdf:RDF>
  </metadata>
  <g
     inkscape:label="Layer 1"
     inkscape:groupmode="layer"
     id="layer1"
     transform="translate(-169.58582,-11.495634)">
    <text
       xml:space="preserve"
       style="font-style:normal;font-weight:normal;font-size:15px;line-height:125%;font-family:sans-serif;letter-spacing:0px;word-spacing:0px;fill:#000000;fill-opacity:1;stroke:none;stroke-width:1px;stroke-linecap:butt;stroke-linejoin:miter;stroke-opacity:1"
       x="344.36099"
       y="30.592911"
       id="text4402"
       sodipodi:linespacing="125%"><tspan
         sodipodi:role="line"
         id="tspan4404"
         x="344.36099"
         y="30.592911">Senate</tspan></text>
    <path
       d="m 287.57132,245.28868 0.65662,-1.24413 0.79486,-0.10367 0.10367,0.27647 -0.72574,1.07133 -0.82941,0 z m 3.52502,-1.27868 2.1081,0.89853 0.72574,-0.10368 0.55294,-1.3478 -0.20735,-1.175 -1.45148,-0.1728 -1.38236,0.62206 -0.34559,1.27869 z m 10.60961,3.4559 1.27868,1.90074 0.82942,-0.10368 0.38015,-0.17279 0.51838,0.44927 1.27869,-0.0691 0.34559,-0.51839 -1.00221,-0.62206 -0.65663,-1.27868 -0.72573,-1.24413 -2.00443,1.00221 -0.24191,0.65663 z m 6.98092,3.07575 0.44926,-0.65662 1.62428,0.34559 0.20735,-0.1728 2.1081,0.20735 -0.10368,0.44927 -0.89853,0.51839 -1.5206,-0.10368 -1.86618,-0.5875 z m 1.83163,1.79706 0.65662,1.34781 1.07132,-0.38015 0.10368,-0.55295 -0.55294,-0.72574 -1.27868,-0.10367 0,0.4147 z m 2.41913,-0.4147 0.79485,-1.00221 1.62428,0.82941 1.52059,0.38015 1.5206,0.93309 0,0.65662 -1.24413,0.62207 -1.65883,0.34559 -0.82942,-0.51839 -1.72794,-2.24633 z m 5.73679,5.3912 0.55294,-0.44927 1.17501,0.55295 2.62648,1.24412 1.17501,0.72574 0.55294,0.82942 0.65662,1.52059 1.38236,0.89854 -0.10367,0.44926 -1.3478,1.10589 -1.45148,0.51839 -0.51839,-0.20736 -1.07133,0.62206 -0.82941,1.10589 -0.79486,1.00221 -0.62206,-0.0691 -1.24413,-0.89854 -0.10367,-1.55515 0.20735,-0.82942 -0.55294,-1.96986 -0.72574,-0.62206 -0.0691,-0.89854 0.79486,-0.34559 0.72574,-1.07133 0.17279,-0.34559 -0.55294,-0.62206 -0.0346,-0.69118 z"
       id="HI"
       inkscape:connector-curvature="0"
       style="fill:#ff8080" />
    <path
       d="m 261.65207,222.61798 -0.10368,29.51338 0.55295,0.34559 1.07133,0.0691 0.51838,-0.38015 0.89853,0 0.0691,1.00221 2.41913,2.35001 0.1728,0.89854 1.175,-0.65662 0.20736,-0.0691 0.10367,-1.07133 0.51839,-0.55295 0.38015,-0.0691 0.65662,-0.51839 1.07133,0.72574 0.20735,1.00221 0.65662,0.38015 0.38015,0.82942 1.3478,0.62206 1.17501,2.07354 0.93309,1.3478 0.79486,0.93309 0.51838,1.27869 1.72795,0.62206 1.79707,0.72574 0.34559,1.52059 0.1728,1.07133 -0.34559,1.17501 -0.62206,0.79485 -0.55295,-0.27647 -0.51838,-1.07133 -0.9331,-0.51838 -0.62206,-0.38015 -0.27647,0.27647 0.51838,0.93309 0.0691,1.27869 -0.38015,0.17279 -0.65662,-0.65662 -0.72574,-0.44927 0.1728,0.55295 0.44926,0.62206 -0.27647,0.27647 c 0,0 -0.27647,-0.10367 -0.44926,-0.34559 -0.1728,-0.20735 -0.72574,-1.175 -0.72574,-1.175 l -0.34559,-0.79486 c 0,0 -0.10368,0.44927 -0.34559,0.34559 -0.20736,-0.10368 -0.44927,-0.51839 -0.44927,-0.51839 l 0.62206,-0.65662 -0.51838,-0.51838 0,-1.72795 -0.27648,0 -0.27647,1.175 -0.38015,0.1728 -0.34559,-1.27868 -0.20735,-1.27869 -0.27647,-0.17279 0.10367,1.96986 0,0.38015 -0.51838,-0.44927 -1.24412,-2.07354 -0.72574,-0.17279 -0.20736,-1.27868 -0.55294,-1.00222 -0.55295,-0.38014 0,-0.79486 0.72574,-0.44927 -0.17279,-0.10367 -0.89854,0.20735 -1.175,-0.82942 -0.89854,-1.00221 -1.65883,-0.89853 -1.38236,-0.89854 0.44927,-1.10588 0,-0.55295 -0.62206,0.55295 -1.00221,0.38015 -1.27869,-0.38015 -1.96986,-0.82942 -1.90074,0 -0.20736,0.17279 -2.24633,-1.3478 -0.72574,-0.10367 -0.9331,-2.00442 -1.24412,0.10367 -1.24412,0.51839 0.17279,1.55515 0.38015,-1.00221 0.34559,0.10368 -0.51838,1.52059 1.10588,-0.93309 0.20736,0.55295 -1.3478,1.52059 -0.44927,-0.10368 -0.1728,-0.65662 -0.44926,-0.27647 -0.44927,0.38015 -0.93309,-0.62206 -1.07133,0.72574 -0.62206,0.72574 -1.17501,0.72574 -1.62427,-0.0691 -0.1728,-0.72574 1.27869,-0.20736 0,-0.44926 -0.79486,-0.20736 0.34559,-0.82941 0.79486,-1.3478 0,-0.62207 0.0691,-0.27647 1.5206,-0.79485 0.34559,0.44926 0.93309,0 -0.44926,-0.89853 -1.27869,-0.10368 -1.72795,0.93309 -0.82941,1.17501 -0.62207,0.89853 -0.38014,0.79486 -1.45148,0.51839 -1.07133,0.89853 -0.10368,0.55294 0.79486,0.34559 0.27647,0.72574 -0.93309,1.10589 -2.24634,1.45148 -2.6956,1.45148 -0.72574,0.38015 -1.83163,0.38015 -1.83162,0.79485 0.62206,0.44927 -0.51839,0.51838 -0.17279,0.38015 -0.93309,-0.34559 -1.10589,0.0691 -0.27647,0.79486 -0.34559,0 0.10367,-0.82942 -1.24412,0.44927 -1.00221,0.34559 -1.17501,-0.44927 -1.00221,0.65662 -1.10589,0 -0.72574,0.44927 -0.55294,0.27647 -0.72574,-0.10367 -0.89853,-0.38015 -0.79486,0.20735 -0.34559,0.34559 -0.55294,-0.38015 0,-0.65662 1.07133,-0.44927 2.17721,0.20736 1.5206,-0.55295 0.72574,-0.72574 1.00221,-0.20735 0.62206,-0.27647 0.93309,0.0691 0.55295,0.44926 0.34559,-0.10367 0.79485,-0.9331 1.07133,-0.34559 1.17501,-0.20735 0.44927,-0.10368 0.20735,0.1728 0.27647,0 0.44927,-1.27869 1.38236,-0.51838 0.65662,-1.27868 0.79486,-1.55516 0.55294,-0.51838 0.10368,-0.89854 -0.55295,0.44927 -1.175,0.20735 -0.20736,-0.82941 -0.44926,-0.10368 -0.34559,0.34559 -0.0691,1.00221 -0.51839,-0.0691 -0.51838,-2.00442 -0.44927,0.44927 -0.38015,-0.1728 -0.10367,-0.65662 -1.38236,0.0691 -0.72574,0.38015 -0.89854,-0.10368 0.51839,-0.51838 0.17279,-0.89854 -0.20735,-0.65662 0.51838,-0.34559 0.44927,-0.0691 -0.20735,-0.62206 0,-1.52059 -0.34559,-0.34559 -0.27647,0.51838 -2.1081,0 -0.51839,-0.44927 -0.20735,-1.3478 -0.72574,-1.24412 0,-0.34559 0.72574,-0.27647 0.0691,-0.72574 0.38014,-0.38015 -0.27647,-0.1728 -0.44926,0.1728 -0.38015,-0.93309 0.34559,-1.72795 1.55515,-1.10589 0.89854,-0.55295 0.65662,-1.27868 0.93309,-0.44927 0.89853,0.38015 0.10368,0.82942 0.82942,-0.10368 1.10588,-0.82941 0.55295,0.20735 0.34559,0.20735 0.55294,0 0.79486,-0.44926 0.27647,-1.5206 c 0,0 0.10368,-1.00221 0.34559,-1.175 0.20736,-0.1728 0.34559,-0.34559 0.34559,-0.34559 l -0.38015,-0.65663 -0.89853,0.27648 -1.10589,0.27647 -0.65662,-0.1728 -1.24412,-0.62206 -1.72795,-0.0691 -1.24413,-1.27868 0.1728,-1.3478 0.20735,-0.82942 -0.72574,-0.62206 -0.65662,-1.27868 0.1728,-0.27647 2.35001,-0.1728 0.72574,0 0.34559,0.34559 0.20735,0 -0.0691,-0.55294 1.3478,-0.20736 0.89854,0.10368 0.51838,0.38015 -0.51838,0.72574 -0.1728,0.51838 0.9331,0.55295 1.72795,0.62206 0.62206,-0.34559 -0.79486,-1.5206 -0.34559,-1.10588 0.34559,-0.27648 -1.17501,-0.65662 -0.17279,-0.38015 0.17279,-0.55294 -0.27647,-1.3478 -1.00221,-1.62427 -0.82941,-1.45148 1.00221,-0.65662 1.10588,0 0.62207,0.20735 1.45147,-0.0691 1.27869,-1.24412 0.38015,-1.07133 1.27868,-0.82942 0.55294,0.34559 0.9331,-0.20735 1.27868,-0.72574 0.38015,-0.0691 0.34559,0.27647 1.55515,-0.0691 0.9331,-1.07133 0.38015,0 1.24412,0.82941 0.65662,0.72574 -0.17279,0.38015 0.20735,0.38015 0.55294,-0.55294 1.3478,0.10367 0.10368,1.27869 0.65662,0.51838 2.45369,0.20736 2.17722,1.45147 0.51838,-0.34559 1.79707,0.89854 0.72574,-0.20736 0.65662,-0.27647 1.65883,0.65662 1.55516,0.9331 z m -39.77741,9.98755 0.72574,1.83162 -0.0691,0.34559 -1.00221,-0.10367 -0.62206,-1.38236 -0.62206,-0.51839 -0.82942,0 -0.0691,-0.89853 0.62206,-0.82942 0.38015,0.82942 0.51839,0.51838 0.96765,0.20736 z m -0.89853,11.57726 1.27868,0.27647 1.27868,0.34559 0.27647,0.34559 -0.55294,1.27869 -1.07133,-0.0691 -1.175,-1.24413 -0.0346,-0.93309 z m -7.15372,-4.87282 0.38015,0.89854 0.38015,0.55294 -0.38015,0.27647 -0.72574,-1.07133 0,-0.65662 0.34559,0 z m -4.73458,25.26263 1.17501,-0.79486 1.175,-0.34559 0.89854,0.10368 0.17279,0.55295 0.65662,0.17279 0.65662,-0.65662 -0.10367,-0.55295 0.93309,-0.20735 1.00221,0.89854 -0.38015,0.62206 -1.52059,0.38015 -0.9331,-0.1728 -1.27868,-0.38015 -1.5206,0.51839 -0.55294,0.10367 -0.38015,-0.24191 z m 16.89935,-1.55515 0.55295,0.65662 0.72573,-0.55295 -0.51838,-0.44926 -0.7603,0.34559 z m 1.00221,1.03677 0.38015,-0.79486 0.72574,0.10368 -0.27647,0.65662 -0.82942,0 z m 8.15593,-0.65662 0.51838,0.62206 0.34559,-0.38015 -0.27647,-0.65662 -0.5875,0.41471 z m 3.04119,-4.31988 0.38015,2.00442 1.00221,0.27647 1.72795,-1.00221 1.52059,-0.89853 -0.55294,-0.82942 0.17279,-0.82941 -0.72573,0.44926 -1.00222,-0.27647 0.55295,-0.38015 0.65662,0.27647 1.3478,-0.62206 0.1728,-0.51838 -0.82942,-0.27647 0.27647,-0.65662 -0.93309,0.65662 -1.62427,1.24412 -1.65884,1.00221 -0.48382,0.38015 z m 14.61846,-6.84268 0.82941,-0.51839 -0.34559,-0.62206 -0.62206,0.34559 0.13823,0.79486 z"
       id="AK"
       inkscape:connector-curvature="0"
       style="fill:#ff2a2a" />
    <path
       d="m 468.07298,219.78414 0.79485,2.5228 1.27869,3.35223 1.83162,3.24854 1.27869,2.17722 1.65883,1.90074 1.38236,1.27869 0.55294,1.00221 -0.38015,0.44927 -0.24191,0.48382 1.00221,2.55737 1.00221,1.00221 0.89854,1.83163 1.24412,2.00442 1.55515,2.83384 0.44927,2.62648 0.1728,4.14708 0.20735,0.62206 -0.10368,1.17501 -0.82941,0.44926 0.10367,0.65663 -0.20735,0.65662 0.10368,0.82941 0.17279,0.65662 -0.93309,1.10589 -1.07133,0.51839 -1.3478,0.0691 -0.51839,0.55295 -0.82941,0.34559 -0.44927,-0.1728 -0.38015,-0.34559 -0.10367,-1.00221 -0.27648,-1.175 -1.175,-1.79707 -1.24413,-0.79486 -1.3478,-0.10368 -0.27647,0.44927 -1.07133,-1.52059 -0.20735,-1.24413 -0.89854,-1.38236 -0.62206,-0.38015 -0.55294,0.72574 -0.62206,-0.10368 -0.72574,-1.72795 -1.00221,-1.3478 -1.00222,-1.83162 -0.89853,-1.07133 -1.24412,-1.27869 0.72574,-0.82941 1.10588,-1.90075 -0.0691,-0.55294 -1.55516,-0.34559 -0.55294,0.20735 0.10367,0.20736 0.89854,0.34559 -0.51839,1.55515 -0.27647,0.1728 -0.62206,-1.38236 -0.44927,-1.65883 -0.10367,-0.9331 0.51838,-1.62427 0,-3.28311 -1.03677,-1.27868 -0.44927,-1.07133 -1.79706,-0.44926 -0.65663,-0.20736 -0.55294,-0.89853 -1.17501,-0.55295 -0.38014,-1.175 -0.9331,-0.34559 -0.82941,-1.27869 -1.45148,-0.51838 -1.00221,-0.51839 -0.89854,0 -1.38236,0.27648 -0.0691,0.65662 0.27648,0.34559 -0.1728,0.38015 -1.07133,-0.0691 -1.27868,1.24412 -1.24412,0.65662 -1.34781,0 -1.10588,0.44927 -0.10368,-0.93309 -0.55294,-0.65662 -1.00222,-0.38015 -0.55294,-0.51839 -2.79928,-1.3478 -2.62648,-0.62206 -1.5206,0.20735 -2.07354,0.1728 -2.07354,0.72574 -1.20956,0.20735 -0.0691,-2.76472 -0.89854,-0.65662 -0.62206,-0.62206 0.10368,-1.07133 3.52502,-0.44927 8.81254,-1.00221 2.35001,-0.20735 1.86619,0.10367 0.89853,1.34781 0.51839,0.51838 2.79928,0.1728 3.73237,-0.20736 7.43019,-0.44927 1.86618,-0.24191 1.58972,0 0.0691,1.00221 1.31325,0.27647 0.10367,-1.65883 -0.55294,-1.55515 0.34559,-0.24192 1.76251,0.1728 1.79707,0.10368 z m 4.31987,45.75611 0.82942,-0.20735 0.44926,-0.0691 0.51839,-0.79486 0.79486,-0.55294 0.44926,0.17279 0.58751,0.10368 0.13823,0.38015 -1.20956,0.41471 -1.45148,0.51838 -0.79486,0.41471 -0.31103,-0.38015 z m 4.66547,-1.72795 0.4147,0.38015 0.9331,-0.72574 1.83162,-1.45148 1.27869,-1.3478 0.86397,-2.28089 0.34559,-0.5875 0.0691,-1.17501 -0.24191,0.1728 -0.34559,0.96765 -0.51839,1.58971 -1.10589,1.83163 -1.52059,1.45148 -1.17501,0.65662 -0.82941,0.51838 z"
       id="FL"
       inkscape:connector-curvature="0"
       style="fill:#ffd5d5" />
    <path
       d="m 470.0774,208.5179 -0.62206,0.34559 -0.89854,-0.44926 -0.20735,-0.72574 -0.44927,-1.24413 -0.79486,-0.72574 -0.89853,-0.20735 -0.55294,-1.65883 -0.9331,-2.07354 -1.45148,-0.65662 -0.72573,-0.65662 -0.44927,-0.89854 -0.72574,-0.69118 -0.79486,-0.44927 -0.79485,-1.00221 -1.07133,-0.79485 -1.55516,-0.62207 -0.17279,-0.51838 -0.82942,-1.00221 -0.17279,-0.51839 -1.17501,-1.79706 -1.17501,0.0691 -1.38236,-0.82941 -0.44926,-0.44927 -0.10368,-0.62206 0.27647,-0.65662 0.79486,-0.34559 -0.10368,-0.72574 2.1081,-0.89854 3.14487,-1.55515 2.52281,-0.27647 5.70223,-0.1728 0.79486,0.65662 0.55294,1.10589 1.5206,-0.17279 4.35443,-0.51839 1.00221,0.27647 4.35444,2.62649 3.49046,2.79928 -1.86619,1.90074 -0.89853,2.1081 -0.1728,2.17722 -0.55294,0.27647 -0.38015,0.93309 -0.82942,0.20736 -0.72574,1.24412 -0.93309,0.93309 -0.79486,1.17501 -0.55294,0.27647 -1.24412,1.17501 -1.00221,0.0691 0.34559,1.10588 -1.72796,1.90075 -0.79485,0.55294 z"
       id="SC"
       inkscape:connector-curvature="0"
       style="fill:#d3d3d3" />
    <path
       d="m 445.33315,189.54501 -1.65883,0.27647 -2.90295,0.38015 -2.97208,0.31103 0,0.7603 0.0691,0.72574 0.20735,1.17501 1.17501,2.73016 0.82942,3.42134 0.51838,2.1081 0.55295,1.65883 0.51838,2.41913 0.72574,2.17722 0.89853,1.175 0.1728,1.17501 0.65662,0.27647 0.0691,0.72574 -0.62206,1.65883 -0.1728,1.10589 -0.0691,0.65662 0.55295,1.5206 0.10367,1.83162 -0.27647,0.82942 0.20736,0.27647 0.51838,0.27647 0.20735,1.17501 0.89854,1.3478 0.51838,0.51839 2.73016,0.0691 3.73238,-0.20735 7.43018,-0.44927 1.86619,-0.24191 1.58971,0 0.0691,1.00221 0.89853,0.27647 0.10368,-1.52059 -0.55294,-1.55516 0.38015,-0.55294 2.00442,0.27647 1.72795,0.10368 -0.27647,-2.17722 0.79485,-3.4559 0.51839,-1.45148 -0.1728,-0.89853 1.14045,-2.14266 -0.1728,-0.48383 -0.65662,0.24192 -0.89853,-0.44927 -0.20735,-0.72574 -0.44927,-1.24412 -0.79486,-0.72574 -0.89853,-0.20736 -0.55295,-1.65883 -1.00221,-2.17722 -1.45148,-0.65662 -0.72573,-0.65662 -0.44927,-0.89853 -0.72574,-0.65662 -0.79486,-0.44927 -0.79485,-1.00221 -1.07133,-0.79486 -1.55516,-0.62206 -0.17279,-0.51838 -0.82942,-1.00222 -0.17279,-0.51838 -1.17501,-1.69339 -1.17501,0.0691 -1.41692,-1.03677 -0.44926,-0.44927 -0.10368,-0.62206 0.27647,-0.65662 0.82942,-0.41471 -0.38015,-0.41471 0.0346,-0.10368 -2.00442,0.34559 -2.41913,0.27648 -2.35002,0.13823 z"
       id="GA"
       inkscape:connector-curvature="0"
       style="fill:#d3d3d3" />
    <path
       d="m 423.21539,227.1452 -0.55294,-5.25296 -0.93309,-6.4971 0.0691,-4.87282 0.27647,-10.71329 -0.0691,-5.77135 0.0691,-2.21177 2.6956,-0.13824 9.6074,-0.89853 3.07575,-0.24192 -0.0346,0.7603 0.0691,0.72574 0.20735,1.17501 1.17501,2.73016 0.82942,3.42134 0.51838,2.1081 0.55295,1.65883 0.51838,2.41913 0.72574,2.17722 0.89853,1.175 0.1728,1.17501 0.65662,0.27647 0.0691,0.72574 -0.62206,1.65883 -0.1728,1.10589 -0.0691,0.65662 0.55295,1.5206 0.10367,1.83162 -0.27647,0.82942 0.20736,0.27647 0.51838,0.27647 0.34559,0.86398 -2.17722,0 -2.35001,0.20735 -8.81254,1.00221 -3.59414,0.48383 -0.0346,1.31324 0.62206,0.62206 0.89854,0.65662 0.20735,2.73016 -1.90074,0.89854 -0.9331,-0.10368 0.9331,-0.65662 0,-0.34559 -1.07133,-2.07354 -0.79486,-0.20735 -0.51838,1.52059 -0.44927,0.9331 -0.20735,-0.0691 -1.00222,0 z"
       id="AL"
       inkscape:connector-curvature="0"
       style="fill:#d3d3d3" />
    <path
       d="m 494.57973,168.98241 0.5875,1.62427 1.24413,2.24633 0.82941,0.82942 0.20736,0.79486 -0.82942,0.0691 0.27647,0.20735 -0.10367,1.45148 -0.89854,0.44926 -0.20735,0.72574 -0.44927,1.00221 -1.27868,0.55295 -0.82942,-0.10368 -0.51838,-0.0691 -0.55295,-0.44926 0.10368,0.44926 0,0.34559 0.65662,0 0.27647,0.44927 -0.65662,2.17722 1.45148,0 0.20735,0.55294 0.79486,-0.79485 0.44927,-0.1728 -0.65662,1.24412 -1.07133,1.65884 -0.44927,0 -0.38015,-0.1728 -0.93309,0.20736 -1.79707,0.82941 -2.24634,1.83163 -1.175,1.62427 -0.65662,2.24634 -0.1728,0.82941 -1.62427,0.1728 -1.90075,0.44926 -3.42134,-2.83383 -4.35443,-2.62649 -1.00221,-0.27647 -4.35444,0.51839 -1.48603,0.27647 -0.55295,-1.10589 -1.03677,-0.72574 -5.70223,0.17279 -2.52281,0.27648 -3.14487,1.55515 -2.1081,0.89854 -0.55294,0.10367 -2.00442,0.34559 -2.41913,0.27648 -2.35001,0.17279 0.17279,-1.41692 0.62206,-0.51838 0.9331,-0.20736 0.20735,-1.27868 1.45148,-0.93309 1.3478,-0.51839 1.45148,-1.24412 1.52059,-0.72574 0.20736,-1.07133 1.3478,-1.3478 0.20735,-0.0691 c 0,0 0,0.38015 0.27647,0.38015 0.27648,0 0.65662,0.10368 0.65662,0.10368 l 0.79486,-1.24413 0.72574,-0.20735 0.79486,0.10368 0.55294,-1.24413 1.00221,-0.89853 0.1728,-0.72574 0,-1.38236 1.55515,0.24191 2.45369,-0.44927 5.46032,-0.65662 5.90959,-0.89853 6.87724,-1.38236 6.80813,-1.45148 3.93972,-0.96765 1.86619,-0.27647 z m 1.3478,11.40447 0.89853,-0.86398 1.10589,-0.89853 0.51839,-0.20736 0.0691,-0.69118 -0.20735,-2.1081 -0.51838,-0.79485 -0.20736,-0.65662 0.24192,-0.0691 0.93309,1.90074 0.13823,1.5206 -0.0691,1.17501 -1.17501,0.51838 -0.96765,0.82942 -0.38015,0.4147 -0.38015,-0.0691 z"
       id="NC"
       inkscape:connector-curvature="0"
       style="fill:#d3d3d3" />
    <path
       d="m 447.92508,176.61995 -17.93612,1.72795 -5.46032,0.62206 -1.58972,0.17279 -1.3478,0 0,1.3478 -2.90295,0.1728 -2.41913,0.20735 -3.83605,0.0346 -0.10368,2.00442 -0.72574,2.17722 -0.34559,1.03677 -0.44927,1.5206 -0.10367,0.89853 -1.38236,0.79486 0.51838,1.24412 -0.34559,1.5206 -0.34559,0.27647 2.52281,-0.0691 8.32872,-0.65662 1.83162,-0.0691 2.79928,-0.17279 9.60741,-0.89854 3.52501,-0.27647 2.90296,-0.34559 2.90296,-0.38015 1.65883,-0.27647 -0.0346,-1.55515 0.62206,-0.51839 0.93309,-0.20735 0.20736,-1.27869 1.45147,-0.93309 1.34781,-0.51838 1.45147,-1.24413 1.5206,-0.72574 0.31103,-1.20956 1.48604,-1.3478 0.20735,-0.0691 c 0,0 0,0.38015 0.27647,0.38015 0.27648,0 0.65662,0.10368 0.65662,0.10368 l 0.79486,-1.24413 0.72574,-0.20735 0.79486,0.10367 0.55294,-1.24412 0.72574,-0.7603 0.20736,-0.34559 0.0691,-1.3478 -0.51838,-0.10368 -0.82942,0.65662 -2.73016,0.0691 -4.14708,0.65662 -3.38678,0.27648 z"
       id="TN"
       inkscape:connector-curvature="0"
       style="fill:#d3d3d3" />
    <path
       d="m 509.09451,127.96087 -0.1728,-1.45147 -0.27647,-1.5206 -0.5875,-2.03898 1.96986,-0.51839 0.55295,0.38015 1.175,1.5206 1.00221,1.5206 -1.00221,0.51838 -0.44927,-0.0691 -0.38014,0.62206 -0.82942,0.65663 -1.00221,0.38014 z"
       id="RI"
       inkscape:connector-curvature="0"
       style="fill:#ff0000" />
    <path
       d="m 508.78348,128.06455 -0.20736,-1.45148 -0.27647,-1.52059 -0.55294,-2.07354 -1.45148,0.31103 -7.53386,1.65883 0.20735,1.14045 0.51839,2.5228 0,2.79928 -0.38015,0.79486 0.62206,0.72574 1.72795,-1.17501 1.24412,-1.10588 0.65663,-0.72574 0.27647,0.20735 0.93309,-0.51838 1.79707,-0.38015 2.41913,-1.20957 z"
       id="CT"
       inkscape:connector-curvature="0"
       style="fill:#d3d3d3" />
    <path
       d="m 518.04529,125.92189 0.7603,-0.24191 0.17279,-0.5875 0.34559,0.0346 0.34559,0.79485 -0.44926,0.1728 -1.34781,0.0346 0.1728,-0.20736 z m -3.24855,0.27647 0.79486,-0.89853 0.55294,0 0.62207,0.51839 -0.82942,0.34559 -0.7603,0.34559 -0.38015,-0.31104 z m -12.02653,-7.60298 6.04783,-1.45147 0.79485,-0.20736 0.72574,-1.10588 1.27869,-0.58751 1.00221,1.5206 -0.82942,1.79707 -0.10368,0.51838 0.65663,0.89854 0.38014,-0.27648 0.62207,0 0.79485,0.89854 1.3478,2.07354 1.24413,0.17279 0.79485,-0.34559 0.62207,-0.62206 -0.27648,-0.93309 -0.72573,-0.55295 -0.51839,0.27648 -0.34559,-0.44927 0.1728,-0.1728 0.72573,-0.0691 0.62207,0.27647 0.65662,0.82941 0.34559,1.00221 0.10367,0.82942 -1.45147,0.51839 -1.3478,0.65662 -1.34781,1.55515 -0.65662,0.51839 0,-0.34559 0.82942,-0.51839 0.17279,-0.62206 -0.27647,-1.07133 -1.00221,0.51838 -0.27647,0.51839 0.17279,0.79486 -0.72573,0.34559 -0.9331,-1.55516 -1.175,-1.52059 -0.72574,-0.62207 -2.24634,0.65662 -1.76251,0.38015 -7.53386,1.65884 -0.13823,-1.6934 0.20735,-3.66325 1.79707,-0.31103 2.28089,-0.51839 z"
       id="MA"
       inkscape:connector-curvature="0"
       style="fill:#d3d3d3" />
    <path
       d="m 526.06298,92.537899 0.65662,0.725739 0.79486,1.278683 0,0.656621 -0.72574,1.624273 -0.65662,0.207354 -1.17501,1.071329 -1.65883,1.900742 c 0,0 -0.20736,0 -0.44927,0 -0.20735,0 -0.34559,-0.725736 -0.34559,-0.725736 l -0.62206,0.06912 -0.34559,0.518385 -0.82942,0.518381 -0.34559,0.51839 0.55295,0.51838 -0.1728,0.20736 -0.17279,0.93309 -0.65662,-0.0691 0,-0.55294 -0.10368,-0.44927 -0.51839,0.10368 -0.62206,-1.10589 -0.72574,0.44927 0.44927,0.51838 0.10368,0.38015 -0.27648,0.44927 0.10368,1.07133 0.0691,0.55294 -0.55294,0.89853 -1.00221,0.1728 -0.10368,1.00221 -1.83163,1.07133 -0.44927,0.17279 -0.55294,-0.51838 -1.07133,1.24412 0.34559,1.10589 -0.51838,0.44927 -0.0691,1.52059 -0.38015,2.17722 -0.86398,-0.41471 -0.17279,-1.07133 -1.3478,-0.38014 -0.10368,-0.9331 -2.52281,-8.0868 -1.45147,-4.700026 0.48382,-0.03456 0.51839,0.138236 0,-0.898534 0.27647,-1.900745 0.89853,-1.624273 0.51839,-1.38236 -0.65662,-0.829416 0,-2.07354 0.27647,-0.34559 0.27647,-0.933093 -0.0691,-0.518385 -0.0691,-1.658832 0.62207,-1.658832 1.00221,-3.075751 0.72574,-1.451478 0.44926,0 0.44927,0.06912 0,0.380149 0.44927,0.794857 0.93309,0.207354 0.27647,-0.276472 0,-0.34559 1.38236,-1.002211 0.62206,-0.622062 0.51839,0.06912 2.07354,0.829416 0.65662,0.34559 3.14487,10.333141 2.07354,0 0.27647,0.656621 0.0691,1.658832 1.00221,0.794857 0.27647,0 0.0691,-0.172795 -0.17279,-0.380149 0.96765,-0.172795 z m -7.22283,10.436821 0.51838,-0.51839 0.48383,0.38015 0.20735,0.82942 -0.5875,0.31103 -0.62206,-1.00221 z m 2.31545,-2.03898 0.62206,0.65662 c 0,0 0.44927,0.0346 0.44927,-0.0691 0,-0.10368 0.0691,-0.69118 0.0691,-0.69118 l 0.31103,-0.27647 -0.27647,-0.622065 -0.69118,0.241915 -0.48383,0.7603 z"
       id="ME"
       inkscape:connector-curvature="0"
       style="fill:#d3d3d3" />
    <path
       d="m 511.40996,115.03581 0.31103,-0.38015 0.38015,-1.14045 -0.86397,-0.31103 -0.1728,-1.07133 -1.3478,-0.38015 -0.10368,-0.93309 -2.5228,-8.08681 -1.58972,-5.011051 -0.31103,0 -0.20735,0.552944 -0.20736,-0.172795 -0.34559,-0.34559 -0.51838,0.656621 0,1.727951 0.10368,1.96986 0.65662,0.9331 0,1.38235 -1.27869,1.76251 -0.89853,0.38015 0,0.38015 0.38015,0.62206 0,2.97208 -0.27647,3.17943 -0.0691,1.65883 0.34559,0.44926 -0.0691,1.55516 -0.17279,0.62206 0.51838,0.31103 5.66768,-1.62427 0.79485,-0.20735 0.51839,-0.89854 1.27868,-0.55294 z"
       id="NH"
       inkscape:connector-curvature="0"
       style="fill:#d3d3d3" />
    <path
       d="m 498.79593,118.94097 -0.27648,-1.96986 -0.82941,-3.4559 -0.20735,-0.10367 -1.00222,-0.44927 0.27648,-1.00221 -0.27648,-0.72574 -0.93309,-1.58972 0.34559,-1.3478 -0.27647,-1.79706 -0.82942,-2.24634 -0.27647,-1.69339 9.05446,-2.31545 0.10368,2.00442 0.65662,0.93309 0,1.38236 -1.27869,1.38236 -0.89853,0.38015 0,0.38015 0.38015,0.62206 0,2.97208 -0.27647,3.17942 -0.0691,1.65883 0.34559,0.44927 -0.0691,1.55516 -0.17279,0.62206 0.24191,0.55294 -2.41913,0.48383 -1.31324,0.13824 z"
       id="VT"
       inkscape:connector-curvature="0"
       style="fill:#d3d3d3" />
    <path
       d="m 493.37016,131.27854 -0.38015,-0.34559 -0.89853,-0.0691 -0.79486,-0.65662 -0.55294,-2.1081 -1.20956,0.0346 -0.82942,-0.93309 -6.70445,1.52059 -14.86037,3.00663 -2.59192,0.41471 -0.24191,-2.24633 0.48382,-0.38015 0.44927,-0.38015 0.34559,-0.55294 0.62206,-0.38015 0.65662,-0.62207 0.1728,-0.55294 0.72573,-0.93309 0.38015,-0.34559 -0.0691,-0.34559 -0.44927,-1.07133 -0.62206,-0.0691 -0.65662,-2.1081 1.00221,-0.62206 1.52059,-0.51839 1.38236,-0.44926 1.10589,-0.1728 2.17722,-0.0691 0.65662,0.44927 0.55294,0.0691 0.72574,-0.44927 0.89854,-0.38015 1.79706,-0.17279 0.72574,-0.62206 0.62207,-1.10589 0.55294,-0.65662 0.72574,0 0.65662,-0.38015 0.0691,-0.79486 -0.51839,-0.72574 -0.10368,-0.51838 0.38015,-0.72574 0,-0.51839 -0.62206,0 -0.62206,-0.27647 -0.27647,-0.38015 -0.0691,-0.89853 2.00442,-1.90075 0.20736,-0.27647 0.51838,-1.00221 1.00221,-1.55515 0.9331,-1.27869 0.72573,-0.82941 0.82942,-0.62207 1.07133,-0.4147 1.90074,-0.44927 1.10589,0.0691 1.55516,-0.51839 2.62648,-0.72574 0.1728,1.72795 0.82941,2.24634 0.27647,1.79707 -0.34559,1.3478 0.89854,1.55515 0.27647,0.72574 -0.27647,1.00221 1.00221,0.44927 0.20735,0.10368 1.07133,3.80149 -0.17279,1.76251 -0.1728,3.73237 0.27647,1.90074 0.27648,1.24413 0.51838,2.5228 0,2.79928 -0.38015,0.79486 0.62206,0.69118 0.27648,0.5875 -0.65663,0.62206 0.10368,0.44927 0.44927,-0.10368 0.51838,-0.44926 0.79486,-0.89854 0.38015,-0.20735 0.55294,0.20735 0.79486,0.0691 2.73016,-1.3478 1.00221,-0.93309 0.44927,-0.51839 1.45148,0.55295 -1.17501,1.24412 -1.3478,1.00221 -2.45369,1.83163 -0.89853,0.34559 -2.00442,0.65662 -1.38236,0.38015 -0.41471,-0.1728 -0.0691,-1.27868 0.17279,-0.93309 -0.0691,-0.72574 -0.96765,-0.5875 -1.55516,-0.34559 -1.3478,-0.38015 -1.20957,-0.72574 z"
       id="NY"
       inkscape:connector-curvature="0"
       style="fill:#ffaaaa" />
    <path
       d="m 493.23193,131.58957 -0.72574,0.82941 0,1.07133 -0.65662,1.07133 -0.0691,0.55295 0.44927,0.44926 -0.0691,0.82942 -0.79486,0.38015 0.27647,0.93309 0.0691,0.38015 0.93309,0.10368 0.34559,0.89853 1.24413,0.82942 0.82942,0.55294 0,0.27647 -1.10589,1.07133 -0.55295,0.79486 -0.51838,0.93309 -0.79486,0.44927 -0.41471,0.24191 -0.0691,0.41471 -0.20736,0.89854 0.38015,0.76029 1.10589,1.00221 1.65883,0.79486 1.38236,0.20736 0.0691,0.51838 -0.27647,0.34559 0.10367,0.93309 0.27647,0 0.72574,-0.82941 0.27648,-1.65883 0.93309,-1.38236 1.07133,-2.24634 0.38015,-1.90074 -0.20736,-0.38015 -0.0691,-3.24855 -0.55295,-1.17501 -0.38015,0.27648 -0.93309,0.10367 -0.1728,-0.17279 0.38015,-0.34559 0.72574,-0.65662 0.0346,-0.38015 -0.13824,-1.17501 0.1728,-0.93309 -0.0691,-0.72574 -0.89853,-0.38015 -1.55516,-0.34559 -1.3478,-0.38015 -1.24412,-0.5875 z"
       id="NJ"
       inkscape:connector-curvature="0"
       style="fill:#ffd5d5" />
    <path
       d="m 491.15839,144.09993 0.38015,-0.20736 0.79485,-0.20735 0.51839,-0.93309 0.55294,-0.79486 1.10589,-1.07133 0,-0.27647 -0.82942,-0.55295 -1.24412,-0.82941 -0.34559,-0.89854 -0.93309,-0.10367 -0.0691,-0.38015 -0.27647,-0.9331 0.79486,-0.38014 0.0691,-0.82942 -0.44926,-0.44927 0.0691,-0.55294 0.65663,-1.07133 0,-1.07133 0.79485,-0.82942 0.0691,-0.38014 -0.89853,-0.0691 -0.79486,-0.65662 -0.82942,-1.83163 -1.03677,-0.31103 -0.79485,-0.72574 -6.42798,1.38236 -14.86037,3.00663 -3.07575,0.51839 -0.17279,-2.45369 -1.90075,1.9353 -0.44927,0.1728 -1.45147,1.03677 1.00221,6.60077 0.86397,3.35222 1.24413,6.66989 1.14044,-0.20736 4.11252,-0.51838 13.09787,-2.66105 5.14929,-0.96765 2.86839,-0.55294 0.10368,-0.0691 0.72574,-0.55294 0.72574,-0.34559 z"
       id="PA"
       inkscape:connector-curvature="0"
       style="fill:#ffd5d5" />
    <path
       d="m 491.22751,145.44773 0.20735,-0.72574 0,-0.41471 -0.44927,-0.0346 -0.72574,0.55295 -0.51838,0.51838 0.51838,1.45148 0.79486,1.96986 0.72574,3.35222 0.55294,2.17722 1.72795,-0.0691 2.1081,-0.4147 -0.79485,-2.55737 -0.34559,0.17279 -1.24413,-0.82941 -0.62206,-1.62427 -0.65662,-1.24413 -0.79486,-0.34559 -0.72574,-1.24412 0.24192,-0.69118 z"
       id="DE"
       inkscape:connector-curvature="0"
       style="fill:#ffd5d5" />
    <path
       d="m 496.27312,154.05292 -2.1081,0.44927 -2.00442,0.0691 -0.62206,-2.45369 -0.72574,-3.35222 -0.79486,-1.96986 -0.44927,-1.5206 -2.59192,0.55295 -5.14929,0.96765 -12.95963,2.62648 0.38015,1.72795 0.34559,1.96987 0.10368,-0.10368 0.72574,-0.82942 0.79485,-0.89853 0.82942,-0.20736 0.51839,-0.51838 0.62206,-0.89853 0.44926,0.20735 1.00222,-0.10368 0.89853,-0.72574 0.69118,-0.51838 0.62206,-0.1728 0.55295,0.38015 1.00221,0.51839 0.65662,0.62206 0.41471,0.51839 1.41691,0.5875 0,1.00221 1.90075,0.44927 0.38015,0.17279 0.48382,-0.69118 1.00222,0.69118 -0.44927,0.86398 -0.27647,1.38236 -0.62206,0.89853 0,0.72574 0.20735,0.62206 1.76251,0.48383 1.48604,-0.0346 1.07132,0.34559 0.72574,0.10368 0.34559,-0.72574 -0.51838,-0.72574 0,-0.62207 -0.82942,-0.72573 -0.72574,-1.90075 0.44927,-1.83163 -0.0691,-0.72574 -0.44926,-0.44926 c 0,0 0.51838,-0.55295 0.51838,-0.79486 0,-0.20735 0.1728,-0.72574 0.1728,-0.72574 l 0.65662,-0.44927 0.65662,-0.55294 0.17279,0.34559 -0.51838,0.55294 -0.44927,1.27869 0.10368,0.38015 0.62206,0.10367 0.17279,1.90075 -0.72574,0.34559 0.10368,1.24412 0.1728,-0.0691 0.38015,-0.65662 0.55294,0.62207 -0.55294,0.44926 -0.10368,1.17501 0.89853,1.175 1.3478,0.1728 0.55295,-0.27647 1.10589,1.45148 0.48382,0.17279 2.31546,-0.96765 0.69117,-1.38236 0.1728,-1.72795 z m -5.77135,3.11031 0.38015,0.86397 0.0691,0.62207 0.38015,0.65662 c 0,0 0.31103,-0.31103 0.31103,-0.41471 0,-0.10368 -0.24191,-1.07133 -0.24191,-1.07133 l -0.24191,-0.79486 -0.65662,0.13824 z"
       id="MD"
       inkscape:connector-curvature="0"
       style="fill:#ffd5d5" />
    <path
       d="m 468.48768,149.45657 0.38015,1.69339 0.38015,2.38457 1.24413,-0.93309 0.79485,-1.07133 0.86398,-0.20735 0.51838,-0.51839 0.62206,-0.89853 0.41471,0.20735 1.00221,-0.10367 0.89854,-0.72574 0.69118,-0.51839 0.62206,-0.17279 0.44927,0.34559 0.76029,0.38015 0.65663,0.62206 0.48382,0.44926 -0.0346,1.62428 -1.96986,-1.07133 -1.55516,-0.62206 -0.0691,1.83162 -0.1728,0.72574 -0.55294,0.9331 -0.20736,0.55294 -1.07133,0.82942 -0.17279,0.79485 -1.17501,0.10368 -0.10367,1.07133 -0.38015,1.90074 -0.89854,0 -0.44926,-0.27647 -0.55295,-0.93309 -0.62206,0.0691 -0.10368,1.52059 -0.72574,2.2809 -1.72795,3.73237 0.27648,0.44927 -0.0691,0.93309 -0.72574,0.65662 -0.51839,-0.10368 -1.10588,0.82942 -0.89854,-0.34559 -0.62206,1.62427 c 0,0 -1.27868,0.27647 -1.5206,0.34559 -0.20735,0.0691 -0.82941,-0.44927 -0.82941,-0.44927 l -0.82942,0.79486 -0.89853,0.20736 -1.00221,-0.27648 -0.44927,-0.44926 -0.7603,-1.03677 -1.07133,-0.69118 -0.89853,-0.9331 -1.00221,-1.27868 -0.20736,-0.79486 -0.89853,-0.51838 -0.27647,-0.55295 -0.0691,-1.83162 0.7603,-0.0346 0.65662,-0.27647 0.0691,-0.9331 0.55294,-0.51838 0.0691,-1.72795 0.34559,-1.3478 0.44927,-0.20736 0.44926,0.38015 0.1728,0.62206 0.62206,-0.34559 0.1728,-0.55294 -0.38015,-0.62206 0,-0.82942 0.34559,-0.44926 0.79485,-1.17501 0.44927,-0.51839 0.72574,0.1728 0.79486,-0.55294 1.07133,-1.17501 0.79485,-1.3478 0.10368,-1.96986 0.17279,-1.72795 0,-1.62428 -0.38014,-1.07133 0.34559,-0.51838 0.44926,-0.44927 1.20957,6.84268 1.58971,-0.27647 3.73237,-0.34559 z"
       id="WV"
       inkscape:connector-curvature="0"
       style="fill:#ff0000" />
    <path
       d="m 456.46115,168.74049 -0.79486,0.9331 -1.45147,1.24412 -1.48604,2.03898 -0.62206,0.62206 0,0.72574 -1.3478,0.72574 -1.96987,1.17501 -1.20956,0.13823 -17.93612,1.69339 -5.46032,0.62207 -1.58972,0.17279 -1.3478,0 -0.0691,1.45148 -2.83384,0.0346 -2.41912,0.20735 -3.59414,0.0691 0.65662,-0.0691 0.7603,-0.62206 0.72574,-0.38015 0.0691,-1.10589 0.31103,-0.62206 -0.55295,-0.86397 0.27647,-0.65662 0.79486,-0.62207 0.72574,-0.20735 0.93309,0.44927 1.24413,0.44926 0.38015,-0.10367 0.0691,-0.79486 -0.44926,-0.82942 0.10367,-0.79485 0.65663,-0.51839 0.89853,-0.20735 0.55294,-0.20736 -0.27647,-0.62206 -0.20735,-0.65662 0.38015,-0.27647 0.38015,-1.14045 1.03677,-0.5875 2.00442,-0.34559 1.24412,-0.1728 0.51839,0.65662 0.62206,0.27648 0.62206,-1.10589 1.00221,-0.51839 0.65662,0.55295 0.27647,0.38015 0.72574,-0.1728 -0.0691,-1.175 1.00221,-0.55295 0.38014,-0.27647 0.38015,0.55294 1.62428,0 0.27647,-0.72574 -0.10368,-0.79485 1.00221,-1.24413 1.62428,-1.3478 0.17279,-1.55515 0.93309,-0.10368 1.3478,-0.62206 0.9331,-0.65662 -0.10368,-0.65662 -0.51838,-0.51839 0.20735,-0.7603 1.41692,-0.0691 0.82942,-0.27648 1.00221,0.55295 0.55294,1.52059 2.00442,0.10368 0.62206,0.62206 0.72574,0.0691 0.82942,-0.51838 1.07133,0.17279 0.44927,0.51839 0.93309,-0.89854 0.62206,-0.44927 0.55294,0 0.20736,0.9331 0.62206,0.34559 0.82942,0.7603 0.0691,1.90074 0.27648,0.55294 0.89853,0.51839 0.20735,0.79486 1.00222,1.27868 0.89853,0.93309 1.27868,0.65662 z"
       id="KY"
       inkscape:connector-curvature="0"
       style="fill:#d3d3d3" />
    <path
       d="m 459.77882,133.21384 -2.1081,1.41692 -1.3478,0.79486 -1.17501,1.27868 -1.38236,1.3478 -1.10589,0.27647 -1.00221,0.1728 -1.90074,0.89853 -0.72574,0.0691 -1.17501,-1.07133 -1.79707,0.20736 -0.89853,-0.51839 -0.82942,-0.48382 -1.69339,0.24191 -3.52502,0.55294 -2.6956,0.41471 0.44927,5.04561 0.62206,4.73459 0.89853,8.0868 0.20736,1.65883 1.41692,-0.0345 0.82941,-0.27648 1.17501,0.51839 0.72574,1.52059 1.76251,0 0.65662,0.72574 0.62206,-0.0346 0.86398,-0.44926 0.86397,0.13823 0.69118,0.51839 0.5875,-0.72574 0.79486,-0.44927 0.72574,-0.24191 0.20735,0.93309 0.62207,0.34559 1.20956,0.79486 0.7603,-0.0346 0.38015,-0.38015 -0.0346,-0.48382 0.55294,-0.51839 0.0691,-1.72795 0.34559,-1.3478 0.51839,-0.48383 0.51838,0.31103 0.27647,0.41471 0.41471,-0.0691 -0.13824,-0.82941 -0.20735,-0.20736 0,-0.82941 0.34559,-0.44927 0.79486,-1.175 0.44926,-0.51839 0.72574,0.1728 0.79486,-0.55295 1.07133,-1.175 0.79486,-1.34781 0.0691,-1.86618 0.1728,-1.72795 0,-1.62427 -0.38015,-1.07133 0.34559,-0.51839 0.31103,-0.34559 -0.48382,-3.38678 -1.03677,-6.63533 z"
       id="OH"
       inkscape:connector-curvature="0"
       style="fill:#d3d3d3" />
    <path
       d="m 408.00943,94.196731 0.62207,-0.725739 0.76029,-0.276472 1.86619,-1.347801 0.79486,-0.207354 0.17279,0.172795 -1.76251,1.762509 -1.14044,0.656621 -0.72574,0.311031 -0.58751,-0.34559 z m 29.78986,11.093439 0.20736,0.86398 1.10588,0.0691 0.44927,-0.41471 c 0,0 -0.0346,-0.51838 -0.13823,-0.55294 -0.10368,-0.0691 -0.55295,-0.65662 -0.55295,-0.65662 l -0.7603,0.0691 -0.55294,0.0691 -0.10368,0.38014 0.34559,0.1728 z m 10.40226,21.77217 -1.10589,-2.83384 -0.79485,-3.14487 -0.82942,-1.10588 -0.89853,-0.62207 -0.55295,0.38015 -1.3478,0.62206 -0.65662,1.72795 -0.93309,1.27869 -0.38015,0.20735 -0.51839,-0.20735 c 0,0 -0.89853,-0.51839 -0.82941,-0.72574 0.0691,-0.20736 0.17279,-1.72795 0.17279,-1.72795 l 1.17501,-0.44927 0.27647,-1.17501 0.20735,-0.89853 0.82942,-0.55294 -0.10368,-3.4559 -0.55294,-0.79486 -0.44927,-0.27647 -0.27647,-0.72574 0.27647,-0.27647 0.55295,0.10367 0.0691,-0.55294 -0.89853,-0.7603 -0.44927,-0.89853 -0.89853,0 -1.55516,-0.51839 -1.90074,-1.175 -0.93309,0 -0.20736,0.20735 -0.34559,-0.17279 -1.07133,-0.79486 -1.00221,0.62206 -1.00221,0.79486 0.10368,1.24412 0.34559,0.10368 0.72574,0.17279 0.17279,0.27648 -0.89853,0.27647 -0.89854,0.10367 -0.51838,0.62207 -0.10368,0.72574 0.10368,0.55294 0.10368,1.90074 -1.24413,0.72574 -0.20735,-0.0691 0,-1.45148 0.44926,-0.82942 0.20736,-0.82941 -0.27647,-0.27648 -0.65662,0.27648 -0.34559,1.45147 -0.9331,0.38015 -0.62206,0.65662 -0.0691,0.34559 0.20736,0.27648 -0.20736,0.89853 -0.79485,0.17279 0,0.38015 0.27647,0.82942 -0.38015,2.1081 -0.55295,1.38236 0.20736,1.62427 0.17279,0.38015 -0.27647,0.82942 -0.10368,0.27647 -0.10367,0.93309 1.24412,2.07354 1.00221,2.24634 0.51839,1.65883 -0.27647,1.62427 -0.34559,2.07354 -0.82942,1.79707 -0.10368,0.93309 -1.14044,1.07133 1.52059,-0.0691 7.39563,-0.79485 2.52281,-0.34559 0.0346,0.5875 2.38458,-0.41471 3.55957,-0.51838 1.3478,-0.1728 0.0346,-0.20735 0.0691,-0.51839 0.72574,-1.27868 0.69118,-0.5875 -0.0691,-1.76251 0.55294,-0.55295 0.38015,-0.10367 0.0691,-1.24413 0.51839,-1.03677 0.38015,0.20736 0.0691,0.20735 0.27648,0.0691 0.65662,-0.34559 -0.13824,-3.14487 z m -45.06494,-22.80894 0.24192,-0.20735 0.93309,-0.27648 1.24413,-0.79485 0,-0.34559 0.20735,-0.20736 2.07354,-0.34559 0.82942,-0.65662 1.52059,-0.72574 0.0691,-0.44926 0.65662,-1.002215 0.62206,-0.276472 0.44927,-0.622062 0.79486,-0.794857 1.52059,-0.829416 1.62428,-0.172795 0.38014,0.380149 -0.10367,0.34559 -1.27869,0.34559 -0.51838,1.071329 -0.79486,0.276472 -0.17279,0.829416 -0.82942,1.105891 -0.10368,0.89853 0.27648,0.1728 0.34559,-0.38015 1.24412,-1.00221 0.44927,0.44926 0.79485,0 1.10589,0.34559 0.51839,0.38015 0.51838,1.07133 0.9331,0.93309 1.3478,-0.0691 0.51838,-0.34559 0.55295,0.44926 0.55294,0.1728 0.44927,-0.27647 0.38015,0 0.55294,-0.34559 1.38236,-1.24413 1.17501,-0.38015 2.28089,-0.10367 1.55515,-0.65663 0.89854,-0.44926 0.51838,0.0691 0,1.96986 0.1728,0.10368 1.00221,0.27647 0.65662,-0.1728 2.1081,-0.55294 0.38015,-0.38015 0.51838,0.17279 0,2.41913 1.10589,1.07133 0.44927,0.20736 0.44927,0.34559 -0.44927,0.10367 -0.27647,-0.10367 -1.27869,-0.1728 -0.72574,0.20736 -0.79485,-0.0691 -1.10589,0.51838 -0.62206,0 -2.00442,-0.44926 -1.79707,0.0691 -0.65662,0.89854 -2.41913,0.20735 -0.82942,0.27647 -0.38015,1.07133 -0.44927,0.38015 -0.17279,-0.0691 -0.51839,-0.55294 -1.55515,0.82942 -0.20735,0 -0.38015,-0.55295 -0.27648,0.0691 -0.65662,1.5206 -0.34559,1.38236 -1.10588,2.41913 -0.41471,-0.34559 -0.48383,-0.34559 -0.65662,-3.55958 -1.20956,-0.48383 -0.72574,-0.79485 -4.18164,-0.9331 -1.00221,-0.34559 -2.83384,-0.76029 -2.73016,-0.38015 -1.31324,-1.83163 z"
       id="MI"
       inkscape:connector-curvature="0"
       style="fill:#d3d3d3" />
    <path
       d="m 329.45683,115.51963 -3.6287,-0.27647 -11.09344,-1.14044 -5.59856,-0.72574 -9.78019,-1.41692 -6.87724,-1.03677 -0.48383,3.8706 -1.31324,8.39784 -1.83163,10.50594 -0.51838,3.62869 -0.58751,4.11252 2.24634,0.31103 8.95078,0.86398 7.11915,0.79486 12.71772,1.41692 8.22504,1.00221 1.55515,-15.27508 0.48383,-8.77799 0.41471,-6.25518 z"
       id="WY"
       inkscape:connector-curvature="0"
       style="fill:#ffaaaa" />
    <path
       d="m 330.28624,108.08945 0.20736,-3.87061 0.79485,-8.570631 c 0.1728,-1.72795 0.38015,-2.937515 0.48383,-5.322086 l 0.31103,-5.045614 -10.60961,-0.967652 -10.09123,-1.209565 -10.12579,-1.38236 -11.16255,-1.831627 -6.35886,-1.175006 -11.30079,-2.384571 -1.55516,7.361067 1.17501,2.591925 -0.48383,1.589714 0.62206,1.589714 1.10589,0.483826 1.58972,3.732372 0.93309,1.105888 0.17279,0.380149 1.17501,0.380149 0.17279,0.725739 -2.45368,6.082379 0,0.86398 0.86397,1.10589 0.31103,0 1.65883,-1.03677 0.24192,-0.38015 0.55294,0.24191 -0.0691,1.83163 0.9331,4.35443 1.03677,0.86398 0.31103,0.24191 0.62206,0.79486 -0.1728,1.175 0.24192,1.17501 0.38015,0.31103 0.79485,-0.79486 0.9331,0 1.10588,0.55295 0.86398,-0.31103 1.41692,0 1.27868,0.55294 0.93309,-0.17279 0.1728,-1.03677 1.03677,-0.24192 0.48382,0.48383 0.1728,1.10589 0.62206,0.48382 0.51839,-4.00884 7.15371,1.03677 9.74564,1.38236 5.73679,0.65662 10.85153,1.20956 3.80149,0.51839 0.38015,-5.32209 0.48382,-1.90074 z"
       id="MT"
       inkscape:connector-curvature="0"
       style="fill:#d3d3d3" />
    <path
       d="m 263.03443,128.37558 c -7.81034,-1.48604 -4.87282,-0.96765 -7.29195,-1.52059 l 1.5206,-6.04783 1.48603,-6.11694 0.48383,-1.45148 0.86397,-2.03898 -0.44926,-0.79486 -0.86398,0.0346 -0.27647,-0.34559 0.17279,-0.38015 0.10368,-1.07133 1.55516,-1.90074 0.62206,-0.1728 0.38015,-0.38015 0.20735,-1.10588 0.31103,-0.24192 1.3478,-2.00442 1.3478,-1.48604 0.0691,-1.31324 -1.175,-0.898532 -0.44927,-1.520596 0.13824,-3.352223 1.27868,-5.702235 1.55515,-7.188272 1.31325,-4.665465 0.27647,-1.313242 4.49267,0.863975 -1.45148,7.430185 1.00221,2.661043 -0.38015,1.589714 0.69118,1.589714 1.10589,0.587503 1.55515,3.386782 0.9331,1.313242 0.20735,0.380149 1.17501,0.380149 0.17279,0.863975 -2.38457,5.805914 0.10368,1.14045 0.93309,1.00221 0.65662,0.17279 1.65883,-1.24412 0.13824,-0.1728 0.0691,0.27647 0.10368,1.41692 0.89853,4.45811 1.20956,0.9331 0.13824,0.27647 0.72574,0.82942 -0.27647,0.96765 0.24191,1.31324 0.65662,0.31103 0.72574,-0.55294 0.89853,-0.1728 1.17501,0.55295 0.86398,-0.20736 1.31324,-0.0691 1.38236,0.55295 0.93309,-0.10368 0.31103,-0.79486 0.86398,-0.55294 0.24191,0.5875 0.20735,0.7603 0.79486,0.86398 -1.31324,8.29416 -1.76251,10.02211 -1.45148,-0.10368 -2.83384,-0.51839 -3.38678,-0.62206 -4.2162,-0.82941 -4.31987,-0.86398 -2.93752,-0.62206 -3.21398,-0.5875 -3.17943,-0.58751 z"
       id="ID"
       inkscape:connector-curvature="0"
       style="fill:#d3d3d3" />
    <path
       d="m 239.36151,68.035568 1.5206,0.518385 3.35222,0.933093 2.97208,0.656621 6.9118,1.969863 7.94857,1.969863 5.25296,1.175006 -0.34559,1.347801 -1.41691,4.769142 -1.55516,7.188272 -1.10589,5.563999 -0.13823,3.248546 -4.56179,-1.347801 -5.39121,-1.175006 -4.73458,0.207354 -0.55294,-0.518385 -1.83163,0.656621 -1.38236,-0.103677 -0.93309,-0.622062 -0.55295,0.172795 -1.45147,-0.06912 -0.65663,-0.483826 -1.65883,-0.587503 -0.48382,-0.06912 -1.72795,-0.449267 -0.62207,0.518385 -1.96986,-0.103677 -1.65883,-1.313242 0.0691,-0.276472 0.0346,-2.730161 -0.72574,-1.347801 -1.41692,-0.241913 -0.13824,-0.829416 -0.86397,-0.207354 -1.00221,-0.172795 -0.62207,0.34559 -0.79485,-1.002211 0.10367,-1.002211 0.9331,-0.103677 0.55294,-1.38236 -0.89853,-0.380149 0.0691,-1.278683 1.52059,-0.207354 -0.93309,-0.933093 -0.51839,-2.453689 0.20736,-1.002211 0,-2.730161 -0.62206,-1.105888 0.79485,-3.248546 0.72574,0.172795 0.82942,1.002211 0.93309,0.898534 1.10589,0.656621 1.55515,0.725739 1.07133,0.207354 1.00221,0.518385 1.17501,0.34559 0.79486,-0.06912 0,-0.829416 0.44926,-0.380149 0.72574,-0.449267 0.10368,0.380149 0.10368,0.622062 -0.79486,0.172795 -0.10368,0.725739 0.62206,0.518385 0.38015,0.829416 0.20736,0.656621 0.51838,-0.06912 0.0691,-0.449267 -0.34559,-0.449267 -0.17279,-1.105888 0.27647,-0.622062 -0.20736,-0.518385 0,-0.898534 0.62207,-1.244124 -0.38015,-0.898534 -0.82942,-1.658832 0.10368,-0.276472 0.48382,-0.276472 z m -3.2831,2.038981 0.69118,-0.06912 0.17279,0.483826 0.51839,-0.552944 0.79486,0 0.27647,0.518385 -0.51839,0.587503 0.20736,0.276472 -0.24192,0.69118 -0.48382,0.138236 c 0,0 -0.31103,0.03456 -0.31103,-0.06912 0,-0.103677 0.51838,-0.898534 0.51838,-0.898534 l -0.5875,-0.207354 -0.10368,0.518385 -0.24191,0.207354 -0.51839,-0.794857 -0.17279,-0.829416 z"
       id="WA"
       inkscape:connector-curvature="0"
       style="fill:#d3d3d3" />
    <path
       d="m 254.25644,199.498 1.31324,-0.17279 0.51839,-0.69118 0.24191,-0.65662 -1.10589,-0.0346 -0.38014,-0.62206 0.27647,-0.58751 0,-2.14265 0.7603,-0.44927 0.93309,-0.89854 0.13823,-1.69339 0.55295,-1.20956 0.65662,-0.72574 1.14045,-0.5875 0.44926,-0.24192 0.27648,-0.51838 -0.31104,-0.31103 -0.34559,-0.51839 -0.31103,-1.83162 -1.00221,-1.79707 0.0346,-0.96765 -0.7603,-1.10589 -5.18385,-8.01769 -6.70444,-9.91843 -7.74122,-11.40447 -4.38899,-6.73901 0.62206,-2.48825 2.35001,-8.95078 2.79928,-10.85152 -4.28531,-1.14045 -4.66547,-1.17501 -4.35443,-1.41691 -2.59193,-0.72574 -3.93972,-1.03677 -2.45369,-0.82942 -0.55295,1.62427 -0.0691,2.55737 -1.79707,4.07796 -1.07133,0.89854 -0.10368,0.38014 -0.62206,0.27648 -0.51839,1.45147 -0.27647,1.10589 0.9331,1.45148 0.55294,1.45148 0.38015,1.24412 -0.10368,2.24634 -0.62206,1.07133 -0.20735,2.00442 -0.34559,1.27868 0.62206,1.3478 0.93309,1.55516 0.79486,1.65883 0.44926,1.38236 -0.10367,1.10589 -0.10368,0.17279 0,0.72574 1.96986,2.17722 -0.17279,0.82941 -0.20736,0.79486 -0.20735,0.65662 0.0691,2.83384 0.72574,1.27868 0.65662,0.89854 0.93309,0.17279 0.34559,0.9331 -0.38015,1.24412 -0.72574,0.55294 -0.38015,0 -0.27647,1.3478 0.1728,1.00222 1.10589,1.52059 0.55294,1.83163 0.51838,1.62427 0.44927,1.07133 1.17501,2.00442 0.51838,0.89854 0.1728,1.00221 0.55294,0.34559 0,0.82941 -0.27647,0.65662 -0.62206,2.45369 -0.1728,0.65662 0.82942,0.9331 1.45148,0.17279 1.55515,0.62206 1.3478,0.72574 1.00221,0 1.00221,1.07133 0.89854,1.65883 0.38015,0.79486 1.3478,0.72574 1.65883,0.27647 0.51839,0.72574 0.20735,1.10589 -0.51839,0.20735 0.10368,0.34559 1.10589,0.27648 0.93309,0.0691 1.00221,1.62428 1.3478,1.45147 0.27648,0.79486 0.89853,1.45148 0.10368,1.10589 0,3.24854 0.17279,0.62207 3.4559,0.51838 6.80813,0.93309 4.90737,0.31103 z m -30.37736,-17.21038 0.44927,0.51839 -0.0691,0.44926 -1.10589,-0.0345 -0.20735,-0.41471 -0.20735,-0.51839 1.14044,0 z m 0.65662,0 0.41471,-0.20735 1.24412,0.72574 1.07133,0.41471 -0.31103,0.20735 -1.55515,-0.0691 -0.55295,-0.55294 -0.31103,-0.51839 z m 7.15372,6.84268 0.62206,0.79486 0.27647,0.34559 0.51838,0.20736 0.20736,-0.51839 -0.34559,-0.62206 -0.93309,-0.69118 -0.38015,0.0691 0,0.4147 z m -0.48383,3.00664 0.62206,1.10588 0.41471,0.65663 -0.51839,0.0691 -0.44926,-0.4147 c 0,0 -0.24192,-0.51839 -0.24192,-0.65663 0,-0.13823 0,-0.76029 0,-0.76029 l 0.1728,0 z"
       id="CA"
       inkscape:connector-curvature="0"
       style="fill:#ff5555" />
    <path
       d="m 254.60203,199.73992 -0.89853,0.76029 -0.10368,0.51839 0.1728,0.34559 6.53165,3.69781 4.18164,2.62649 5.08017,2.97207 5.80591,3.4559 4.25076,0.82942 8.67431,0.93309 0.86397,-4.31987 1.31325,-9.40005 2.41913,-18.28171 1.48603,-10.71329 -8.50151,-1.27869 -9.40005,-1.58971 -11.54271,-2.17722 -1.00221,6.25518 -0.17279,0.1728 -0.5875,0.89853 -0.86398,-0.0346 -0.44927,-0.93309 -0.93309,-0.10368 -0.31103,-0.38015 -0.31103,0 -0.31103,0.20736 -0.65662,0.34559 -0.0346,2.41913 -0.0691,0.5875 -0.20735,4.35443 -0.51839,0.7603 -0.20735,1.14045 0.93309,1.69339 0.44927,2.00442 0.27647,0.34559 0.34559,0.20736 -0.0346,0.79485 -0.55295,0.48383 -1.175,0.5875 -0.65662,0.65662 -0.51839,1.27869 -0.20735,1.69339 -1.00221,0.93309 -0.72574,0.24191 -0.0346,2.00442 -0.17279,0.58751 0.17279,0.27647 1.27868,0.20735 -0.20735,0.9331 -0.51839,0.76029 -1.3478,0.24192 z"
       id="AZ"
       inkscape:connector-curvature="0"
       style="fill:#ffaaaa" />
    <path
       d="m 255.6388,127.20058 7.25739,1.55515 3.35223,0.65662 3.21398,0.62206 2.2809,0.55295 -0.20736,2.03898 -1.20956,5.97871 -1.41692,6.9118 -0.65662,3.35222 -0.7603,4.59635 -1.10589,5.66767 -1.20956,5.42576 -0.69118,3.52502 -0.86398,5.80591 -0.17279,0.38015 -0.38015,0.86398 -0.65662,-0.0346 -0.38015,-0.93309 -0.93309,-0.1728 -0.48383,-0.34559 -0.69118,0.10368 -0.31103,0.24191 -0.44927,0.44927 -0.13823,2.41913 -0.1728,0.5875 -0.13824,4.18164 -0.44926,0.5875 -0.65662,-0.79485 -5.01106,-7.8449 -6.70444,-10.02211 -7.91402,-11.68094 -4.28531,-6.42797 0.55294,-2.2809 2.41913,-8.95078 2.73016,-10.81696 11.61183,2.79927 4.73458,1.03678"
       id="NV"
       inkscape:connector-curvature="0"
       style="fill:#ff0000" />
    <path
       d="m 294.44856,172.71478 -8.50151,-1.20957 -9.1927,-1.69339 -11.68094,-2.07354 0.55294,-3.17942 1.10589,-5.25297 1.10589,-5.70224 0.7603,-4.70002 0.65662,-3.07575 1.31324,-7.0846 1.20957,-6.04782 0.38014,-1.93531 4.389,0.79486 4.14708,0.72574 3.55957,0.62206 2.8684,0.48383 1.27868,0.17279 -0.51838,3.66326 -0.79486,4.56178 2.6956,0.31103 5.66768,0.62207 2.83384,0.31103 -0.72574,7.60298 -1.10589,7.81033 -1.31324,9.6074 -0.5875,3.83605 -0.10368,0.82942 z"
       id="UT"
       inkscape:connector-curvature="0"
       style="fill:#ffaaaa" />
    <path
       d="m 337.85466,154.5713 0.48383,-7.36106 -11.09344,-1.07133 -8.46695,-0.9331 -12.89051,-1.41691 -7.15371,-0.86398 -0.89854,7.6721 -1.10589,7.74121 -1.31324,9.67652 -0.51838,3.83605 -0.10368,0.96766 11.7155,1.31324 13.02874,1.48603 11.05888,1.10589 5.7368,0.27647"
       id="CO"
       inkscape:connector-curvature="0"
       style="fill:#ffaaaa" />
    <path
       d="m 304.71258,214.77308 -0.24191,-2.1081 2.97207,0.1728 10.19491,1.07133 9.81475,0.48382 0.69119,-7.70665 1.27868,-19.31849 0.38015,-6.70444 0.69118,0.10368 0,-3.83605 -11.128,-0.82942 -12.75227,-1.52059 -11.92286,-1.41692 -1.45147,10.64417 -2.41913,18.38539 -1.31325,9.29637 -0.69118,4.59634 5.35665,0.69118 0.44927,-3.4559 5.77135,0.89854 4.31987,0.55294 z"
       id="NM"
       inkscape:connector-curvature="0"
       style="fill:#ffaaaa" />
    <path
       d="m 255.50057,126.88954 1.48603,-6.18606 1.62428,-6.18606 0.38015,-1.45147 0.82941,-1.93531 -0.20735,-0.41471 -0.86398,0 -0.44926,-0.5875 0.17279,-0.51838 0.1728,-1.10589 1.55515,-1.90075 0.62206,-0.38015 0.38015,-0.38015 0.51839,-1.24412 1.38236,-1.96986 1.24412,-1.3478 0.0691,-1.20957 -1.14045,-0.863974 -0.41471,-1.555155 -4.56178,-1.278683 -5.21841,-1.209565 -5.32209,0.03456 -0.17279,-0.483826 -1.90075,0.725739 -1.55515,-0.207354 -0.82942,-0.552944 -0.44927,0.241913 -1.62427,-0.06912 -0.5875,-0.483826 -1.83163,-0.725739 -0.27647,0.03456 -1.48604,-0.518385 -0.65662,0.622062 -2.14266,-0.103677 -2.03898,-1.416919 0.24191,-0.276472 0.0691,-2.695602 -0.79486,-1.347801 -1.41691,-0.207354 -0.24192,-0.863975 -0.82941,-0.172795 -2.00442,0.725739 -0.79486,2.246335 -1.10589,3.4559 -1.10589,2.246335 -1.72795,4.872823 -2.24633,4.70002 -2.79928,4.35443 -0.65662,1.00222 -0.27647,2.97207 -0.44927,2.07354 0.93309,1.20956 2.31545,0.79486 4.00885,1.14045 2.73016,0.86397 4.28531,1.24413 4.59635,1.24412 4.56179,1.24413"
       id="OR"
       inkscape:connector-curvature="0"
       style="fill:#d3d3d3" />
    <path
       d="m 369.89086,109.95564 -0.13824,-2.59193 -0.69118,-2.52281 -0.62206,-4.70002 -0.1728,-3.386783 -0.69118,-1.071329 -0.55294,-1.866186 0,-3.559577 0.24191,-1.347801 -0.72574,-1.900745 -9.81475,-0.207354 -6.42798,-0.207354 -9.15813,-0.449267 -8.60519,-0.656621 -0.44927,4.907378 -0.48382,5.218409 -0.79486,8.60519 -0.1728,3.80149 19.62951,1.31324 19.62952,0.62206 z"
       id="ND"
       inkscape:connector-curvature="0"
       style="fill:#d3d3d3" />
    <path
       d="m 370.40924,136.04768 -0.34559,-0.38015 -0.51838,-1.24412 0.62206,-1.27869 0.38015,-1.9353 -0.89854,-0.72574 -0.10367,-0.93309 0.20735,-1.03677 0.7603,-0.27647 0.10368,-1.96987 -0.0346,-10.40226 -0.20736,-1.03677 -1.41692,-1.24412 -0.34559,-0.69118 0,-0.65662 0.65662,-0.44927 0.51839,-0.65662 0.0691,-0.93309 -19.83687,-0.55295 -19.42216,-1.3478 -0.27647,1.83163 -0.55294,5.49488 -0.44927,6.18606 -0.55294,8.50152 5.52944,0.34559 6.77356,0.38015 6.22062,0.44926 8.22504,0.44927 3.69782,-0.27647 1.00221,0.79485 1.48603,1.03677 0.34559,0.27648 1.20957,-0.31104 1.38236,-0.10367 0.93309,-0.0346 1.07133,0.41471 1.55516,0.48382 1.07132,0.62207 0.20736,0.65662 0.31103,0.65662 0.24191,-0.1728 0.38015,0.0691 z"
       id="SD"
       inkscape:connector-curvature="0"
       style="fill:#d3d3d3" />
    <path
       d="m 374.34897,151.18452 0.48382,0.93309 0.0346,0.72574 0.82942,1.27869 0.93309,1.10588 -1.72795,0 -15.03316,-0.31103 -14.10007,-0.31103 -7.32651,-0.34559 0.38015,-7.36106 -11.54271,-0.9331 1.48604,-15.20596 5.35664,0.34559 6.98092,0.38015 6.1515,0.38015 8.22504,0.38015 3.69782,-0.17279 0.72574,0.79485 1.65883,1.03677 0.38015,0.31103 1.48603,-0.48382 1.3478,-0.1728 0.9331,-0.0691 0.62206,0.48383 1.72795,0.55294 1.03677,0.55295 0.17279,0.55294 0.31104,0.72574 0.62206,0 0.27647,0 0.34559,1.79707 0.93309,2.76472 0.41471,1.58971 0.72574,1.31325 0.17279,1.69339 0.48383,1.48603 0.1728,2.24634"
       id="NE"
       inkscape:connector-curvature="0"
       style="fill:#ffaaaa" />
    <path
       d="m 402.82558,135.49474 0.0691,0.65662 0.79486,0.38015 0.38015,0.44926 0.10368,0.44927 1.3478,1.10589 0.24191,0.7603 -0.27647,1.00221 -0.51839,1.20956 -0.27647,0.9331 -0.7603,0.55294 -0.5875,0.20735 -1.90075,0.51839 -0.24191,0.79485 -0.27647,0.79486 0.20735,0.48383 0.58751,0.5875 0,1.27868 -0.7603,0.55295 -0.1728,0.51838 0,0.86398 -0.51838,0.17279 -0.5875,0.48383 -0.1728,0.51838 0.1728,0.58751 -0.48383,0.4147 -0.79486,-0.93309 -0.51838,-0.89853 -2.8684,0.27647 -3.52502,0.20735 -8.63975,0.24192 -4.49267,0.0691 -3.24854,0.0691 -0.44927,0.0346 -0.5875,-1.55515 -0.0691,-2.2809 -0.55295,-1.41692 -0.24191,-1.83162 -0.79486,-1.27869 -0.31103,-1.65883 -0.93309,-2.59192 -0.38015,-1.86619 -0.48383,-0.7603 -0.55294,-0.93309 0.62206,-1.48604 0.48383,-1.96986 -0.93309,-0.72574 -0.1728,-0.93309 0.31103,-0.86398 0.5875,0 3.97429,0 17.14126,-0.24191 6.87724,-0.24191 0.65663,0.93309 0.62206,0.89853 0.17279,0.27648 -0.62206,0.93309 0.1728,1.45148 0.86397,1.3478 1.03677,0.62206 0.82942,0.0691 0.44926,0.7603 z"
       id="IA"
       inkscape:connector-curvature="0"
       style="fill:#ffaaaa" />
    <path
       d="m 422.8698,227.21432 -0.10367,0.44927 -1.79707,0 -0.51839,-0.27647 -0.72574,-0.10368 -2.35001,0.65662 -0.62206,-0.27647 -0.89853,1.45148 -0.38015,0.27647 -0.38015,-0.86398 -0.38015,-1.3478 -1.17501,-1.10588 0.38015,-2.59193 -0.24191,-0.31103 -0.62206,0.0691 -2.83384,0.24191 -8.36328,0.24191 -0.17279,-0.55294 0.24191,-2.76472 1.17501,-2.14266 1.83162,-3.14487 -0.31103,-0.72574 0.38015,0 0.24191,-1.10589 -0.79485,-0.62206 0.0691,-0.62206 -0.72574,-1.58971 -0.10368,-1.83163 0.48383,-0.93309 -0.13824,-1.48604 -0.48383,-1.03677 0.48383,-0.48383 -0.48383,-0.72573 0.1728,-0.62207 0.31103,-2.14265 1.03677,-0.9331 -0.24191,-0.72574 1.27868,-1.83162 0.93309,-0.31103 0,-0.86398 -0.24191,-0.48383 0.93309,-1.83162 0.9331,-0.38015 0.0345,-1.17501 3.00664,-0.0346 8.32872,-0.65662 1.58971,-0.0691 0,2.21178 0.0691,5.77135 -0.27647,10.71329 -0.0691,4.87282 0.93309,6.49709 0.5875,5.25297 z"
       id="MS"
       inkscape:connector-curvature="0"
       style="fill:#d3d3d3" />
    <path
       d="m 420.72715,169.81182 0.0346,-1.00221 0.1728,-1.55515 0.79486,-1.00221 0.62206,-1.34781 0.89853,-1.45147 -0.17279,-2.00442 -0.62206,-0.9331 -0.10368,-1.10589 0.27647,-1.90074 -0.17279,-2.41913 -0.44927,-5.52944 -0.44927,-5.32209 -0.34559,-4.0434 1.07133,0.31103 0.51839,0.34559 0.38014,-0.10368 0.72574,-0.65662 0.96766,-0.55294 1.76251,-0.0691 7.60298,-0.79486 1.9353,-0.17279 0.51838,5.52944 1.48604,12.71771 0.20735,2.00442 -0.17279,0.72574 0.41471,0.62206 0.0346,0.48383 -0.86398,0.55294 -1.20956,0.55295 -1.10589,0.20735 -0.20735,1.69339 -1.58972,1.14045 -0.96765,1.38236 0.10368,0.82942 -0.20736,0.51838 -1.14044,0 -0.55295,-0.55294 -0.86397,0.44926 -0.9331,0.51839 0.0691,1.07133 -0.41471,0.10368 -0.17279,-0.34559 -0.7603,-0.51839 -1.14045,0.44927 -0.55294,1.03677 -0.48383,-0.27647 -0.51838,-0.55295 -1.55516,0.1728 -1.9353,0.34559 -0.93309,0.44926 z"
       id="IN"
       inkscape:connector-curvature="0"
       style="fill:#d3d3d3" />
    <path
       d="m 420.51979,170.05374 0,-1.24413 0.10368,-1.69339 0.82941,-1.07133 0.62207,-1.31324 0.89853,-1.3478 -0.13824,-1.83163 -0.69118,-1.20956 -0.0346,-1.14045 0.24191,-1.83163 -0.27647,-2.48825 -0.38015,-5.46032 -0.44927,-5.18385 -0.31103,-4.00884 -0.10368,-0.31103 -0.27647,-0.89854 -0.44927,-1.27868 -0.55294,-0.62206 -0.51838,-0.89854 -0.0691,-1.90074 -3.42134,0.44927 -9.40005,0.5875 -3.00664,-0.13824 0.0691,0.82942 0.79486,0.24191 0.31103,0.38015 0.1728,0.62206 1.3478,1.17501 0.24191,0.79486 -0.24191,1.175 -0.62207,1.27869 -0.24191,0.86397 -0.79485,0.62206 -0.62207,0.24192 -1.83162,0.48382 -0.24192,0.62206 -0.24191,0.7603 0.24191,0.48383 0.62207,0.55294 -0.0691,1.41692 -0.62206,0.55294 -0.24192,0.55295 0,0.93309 -0.62206,0.1728 -0.55294,0.38015 -0.0691,0.48382 0.0691,0.72574 -0.58751,0.44927 -0.34559,0.96765 0.1728,1.27868 0.79485,2.52281 2.52281,2.59192 1.90075,1.27869 -0.0691,1.48603 0.31103,0.48383 2.21178,0.1728 0.93309,0.48382 -0.24191,1.27868 -0.79486,2.03899 -0.24191,1.10588 0.79485,1.3478 2.21178,1.83163 1.58971,0.24191 0.72574,1.72795 0.72574,1.10589 -0.31103,1.03677 0.55294,1.41692 0.62207,0.72574 0.65662,-0.27647 0.24191,-0.7603 0.69118,-0.48383 1.10589,-0.38014 1.07133,0.4147 1.00221,0.38015 0.27647,-0.0691 -0.0346,-0.4147 -0.38015,-0.96766 0.13824,-0.82941 0.79485,-0.55295 0.82942,-0.34559 0.41471,-0.13823 -0.20736,-0.44927 -0.27647,-0.7603 0.41471,-0.44926 0.31103,-1.00221 z"
       id="IL"
       inkscape:connector-curvature="0"
       style="fill:#ff2a2a" />
    <path
       d="m 370.09821,110.23211 -0.17279,-2.93752 -0.62207,-2.52281 -0.62206,-4.66546 -0.17279,-3.386782 -0.62207,-1.175006 -0.55294,-1.72795 0,-3.559577 0.24191,-1.347801 -0.62206,-1.900745 10.40226,0 0.10368,-2.833838 0.20735,-0.06912 0.79486,0.172795 0.65662,0.276472 0.27647,1.900745 0.51839,2.108099 0.55294,0.552944 1.65883,0 0.10368,0.518385 2.17722,0.103677 0,0.725739 1.65883,0 0.10368,-0.449267 0.38014,-0.380149 0.79486,-0.207354 0.44927,0.34559 1.00221,0 1.3478,0.898534 1.83163,0.829416 0.82941,0.172795 0.1728,-0.34559 0.51838,-0.172795 0.1728,1.002211 0.89853,0.449267 0.1728,-0.172795 0.44926,0.06912 0,0.725739 0.89854,0.34559 1.07133,0 0.55294,-0.276472 1.10589,-1.105888 0.89853,-0.172795 0.27648,0.622062 0.17279,0.449267 0.34559,0 0.34559,-0.276472 3.07575,-0.103677 0.62206,1.071329 0.20736,0 0.24191,-0.380149 1.5206,-0.138236 -0.20736,0.794857 -1.3478,0.622062 -3.17943,1.416919 -1.65883,0.69118 -1.07133,0.898534 -0.82941,1.244124 -0.79486,1.347806 -0.62206,0.27647 -1.55516,1.72795 -0.44926,0.0691 -1.31325,1.00221 -0.96765,1.10588 -0.0691,1.03677 0.0691,2.69561 -0.55294,0.55294 -1.79707,1.31324 -0.62206,1.96986 0.86397,1.24413 0.1728,0.86397 -0.38015,1.03677 -0.0691,1.27869 0.1728,2.45369 1.175,1.41692 1.03677,0 0.86398,0.79485 1.10588,0.48383 1.27869,1.72795 2.45369,1.72795 0.62206,0.72574 0.0691,1.90074 -7.11916,0.24192 -20.80452,0.17279 -0.10367,-12.33756 -0.1728,-1.03677 -1.41692,-1.17501 -0.38015,-0.62206 0,-0.55295 0.72574,-0.55294 0.48383,-0.48383 -0.0346,-1.10588 z"
       id="MN"
       inkscape:connector-curvature="0"
       style="fill:#d3d3d3" />
    <path
       d="m 418.8264,133.97414 0.13824,-1.03677 -0.55295,-1.55516 -0.20735,-2.10809 -0.38015,-0.82942 0.34559,-1.07133 0.27647,-1.00221 0.51839,-0.89853 -0.20736,-1.17501 -0.20735,-1.24412 0.17279,-0.62207 0.65662,-0.82941 0.0691,-0.93309 -0.27647,-0.44927 0.20735,-0.89854 0.1728,-1.10588 0.93309,-1.96987 1.00221,-2.35001 0.0691,-0.79486 -0.10367,-0.34559 -0.27648,0.1728 -1.45148,2.17722 -0.93309,1.38236 -0.65662,0.62206 -0.27647,0.79486 -0.51839,0.27647 -0.38014,0.65662 -0.51839,-0.10368 -0.0691,-0.62206 0.44927,-0.82942 0.72574,-1.62427 0.62206,-0.55294 0.38015,-0.79486 -0.55295,-0.31103 -0.48382,-0.48383 -0.55295,-3.55957 -1.27868,-0.38015 -0.48382,-0.79486 -4.35444,-0.93309 -0.86397,-0.38015 -2.83384,-0.79486 -2.83384,-0.38015 -1.45148,-1.86619 -0.17279,0.44927 -0.38015,-0.0691 -0.20736,-0.38014 -0.93309,-0.27648 -0.38015,0.0691 -0.62206,0.34559 -0.34559,-0.20735 0.20735,-0.65662 0.65663,-1.07133 0.38014,-0.38015 -0.65662,-0.51839 -0.72574,0.27648 -1.00221,0.65662 -2.55736,1.10588 -1.00221,0.20736 -1.00221,-0.1728 -0.34559,-0.31103 -0.72574,0.96765 -0.0691,0.9331 0,2.93751 -0.38015,0.55295 -1.83163,1.3478 -0.79485,2.03898 0.17279,0.0691 0.86398,0.72574 0.24191,1.10588 -0.62206,1.10589 0,1.3478 0.17279,2.2809 1.03677,1.03677 1.17501,0 0.62206,1.10588 1.17501,0.1728 1.3478,1.96986 2.45369,1.41692 0.72573,0.93309 0.31104,2.55737 0.24191,1.14045 0.79486,0.55294 0.0691,0.48383 -0.72574,1.175 0.0691,1.10589 0.86398,1.3478 0.86397,0.38015 1.03677,0.1728 0.44927,0.48382 3.17943,0 9.0199,-0.51838 3.31766,-0.44927 z"
       id="WI"
       inkscape:connector-curvature="0"
       style="fill:#d3d3d3" />
    <path
       d="m 399.09321,152.0485 -0.86397,-1.07133 -0.38015,-0.79486 -2.6956,0.24191 -3.38679,0.1728 -8.77798,0.31103 -4.66547,0.0691 -2.73016,0.0346 -0.79485,0.0346 0.44926,0.86397 -0.0691,0.79486 0.86398,1.3478 1.07133,1.41692 1.07133,0.93309 0.79485,0.0691 0.48383,0.31103 0,1.03677 -0.62206,0.55294 -0.1728,0.79486 0.72574,1.17501 0.86398,1.03677 0.86397,0.62206 0.48383,4.0434 -0.24191,12.19933 0.0691,1.62427 0.1728,1.86619 8.0868,-0.0346 8.01769,-0.24191 7.18827,-0.27648 4.04341,-0.0691 0.7603,1.175 -0.24192,1.14045 -1.07133,0.82941 -0.20735,0.62207 1.86618,0.17279 1.34781,-0.24191 0.5875,-1.90075 0.24191,-2.03898 0.79486,-0.69118 0.5875,-0.51838 0.72574,-0.34559 0.0346,-1.00221 0.20735,-0.58751 -0.34559,-0.5875 -0.93309,0.0346 -0.7603,-0.89853 -0.48382,-1.45148 0.27647,-0.86398 -0.65662,-1.175 -0.62206,-1.58972 -1.65884,-0.27647 -2.41913,-1.9353 -0.5875,-1.41692 0.27647,-1.10589 0.72574,-2.1081 0.1728,-1.00221 -0.65662,-0.34559 -2.38457,-0.27647 -0.34559,-0.58751 -0.0346,-1.45147 -1.90075,-1.17501 -2.41913,-2.6956 -0.79486,-2.52281 -0.0691,-1.45148 0.13823,-0.79485 z"
       id="MO"
       inkscape:connector-curvature="0"
       style="fill:#ffaaaa" />
    <path
       d="m 411.25798,185.05234 -1.31324,0.31103 -2.14266,-0.17279 0.24191,-1.03677 1.10589,-0.93309 0.1728,-0.79486 -0.62207,-1.03677 -3.80149,0.17279 -7.18827,0.31103 -8.05224,0.24192 -8.12137,0.17279 0.55294,2.38457 0,2.83384 0.48383,3.80149 0.0691,13.0633 0.79486,0.65662 1.03677,-0.48382 0.93309,0.38015 0.13823,3.55957 7.91402,-0.0346 6.53165,-0.27647 3.49046,-0.0691 0.38014,-0.72573 -0.10367,-1.20957 -0.62206,-1.03677 0.55294,-0.51838 -0.55294,-0.86398 0.24191,-0.86397 0.48382,-1.93531 0.86398,-0.72574 -0.24191,-0.79485 1.27868,-1.86619 0.93309,-0.48383 -0.0346,-0.51838 -0.10367,-0.62206 1.00221,-1.93531 0.82941,-0.44926 0.13824,-1.17501 0.62206,-0.41471 0.31103,-1.45148 -0.44926,-1.38236 1.38236,-0.82941 0.20735,-0.69118 0.41471,-1.48604 0.24191,-1.07133 z"
       id="AR"
       inkscape:connector-curvature="0"
       style="fill:#ffaaaa" />
    <path
       d="m 336.71422,177.31113 -3.69782,-0.1728 -2.21177,-0.17279 0.10367,0.0691 -0.24191,3.59414 7.60298,0.48383 11.09344,0.44926 -0.79486,8.4324 -0.17279,6.1515 0.0691,0.55294 1.48603,1.27869 0.72574,0.38015 0.24192,-0.0691 0.24191,-0.72574 0.48382,0.62206 0.72574,0 0,-0.48382 0.9331,0.48382 -0.1728,1.3478 1.41692,0.0691 0.86398,0.38015 1.41692,0.24191 0.86397,0.62207 0.79486,-0.72574 1.175,0.24191 0.86398,1.175 0.31103,0 0,0.79486 0.79486,0.24191 0.79485,-0.79485 0.62206,0.24191 0.86398,0 0.31103,0.86398 1.65883,0.62206 0.48383,-0.24192 0.62206,-1.41691 0.38015,0 0.38015,0.72573 1.41692,0.24192 1.27868,0.48382 1.03677,0.31103 0.62206,-0.31103 0.24192,-0.86397 1.48603,0 0.72574,0.31103 0.93309,-0.72574 0.38015,0 0.24192,0.55294 1.41692,0 0.55294,-0.72573 0.62206,0.17279 0.72574,0.86398 1.10589,0.62206 1.10589,0.31103 0.65662,0.38015 -0.13824,-12.85595 -0.48382,-3.80149 -0.0691,-3.07575 -0.48383,-2.24634 -0.27647,-2.48824 -0.0346,-1.31325 -4.18164,0.10368 -16.03537,-0.17279 -15.55155,-0.72574 -8.32872,-0.31103 z"
       id="OK"
       inkscape:connector-curvature="0"
       style="fill:#ffaaaa" />
    <path
       d="m 380.9843,178.1751 -4.35444,0.0691 -15.9317,-0.1728 -15.41331,-0.72574 -8.50152,-0.44926 1.41692,-22.35968 7.53387,0.27648 13.99639,0.48382 15.24052,0.1728 1.76251,0 1.10589,1.10589 0.96765,0.0691 0.31103,0.38015 0,0.69118 -0.62206,0.55295 -0.1728,0.89853 0.7603,1.24412 0.86398,1.07133 0.86397,0.69118 0.38015,3.87061 -0.20735,12.13021 z"
       id="KS"
       inkscape:connector-curvature="0"
       style="fill:#ff8080" />
    <path
       d="m 415.12859,229.28786 -0.34559,-0.89853 -0.38015,-1.07133 -1.14045,-1.20957 0.31103,-2.35001 -0.0346,-0.38015 -0.44926,0.10368 -2.83384,0.31103 -8.63975,0.1728 -0.24191,-0.82942 0.31103,-2.93752 1.14044,-2.03898 1.72795,-3.00663 -0.20735,-0.82942 0.44927,-0.24191 0.17279,-0.69118 -0.79486,-0.72574 -0.0346,-0.65662 -0.62207,-1.48604 -0.17279,-2.03898 -3.35222,0.0346 -6.63533,0.31103 -7.6721,0 0,3.31767 0.24191,3.24854 0.24192,1.3478 0.86397,1.41692 0.31103,1.72795 1.48604,1.90075 0.0691,1.10589 0.24191,0.24191 -0.24191,2.93752 -1.03677,1.72794 0.55294,0.72574 -0.24191,0.86398 -0.24192,2.52281 -0.48382,1.10588 0.0346,1.24413 1.62427,-0.51839 2.79928,-0.10367 3.55958,1.24412 2.24633,0.38015 1.27868,-0.51839 1.10589,0.38015 1.10589,0.34559 0.27647,-0.72574 -1.10589,-0.38014 -0.89853,0.17279 -0.93309,-0.55294 c 0,0 0.0691,-0.44927 0.27647,-0.51839 0.20735,-0.0691 1.07133,-0.34559 1.07133,-0.34559 l 0.62206,0.51839 0.62206,-0.34559 1.10589,0.20735 0.51839,0.82942 0.10367,0.79485 1.55516,0.10368 0.62206,0.62206 -0.27647,0.55295 -0.44927,0.27647 0.55294,0.55294 2.90296,1.24413 1.24412,-0.44927 0.34559,-0.82942 0.89854,-0.20735 0.62206,-0.51839 0.44927,0.34559 0.27647,1.00222 -0.79486,0.27647 0.20736,0.20735 1.175,-0.44927 0.79486,-1.175 0.27647,-0.1728 -0.72574,-0.10367 0.27647,-0.55295 -0.0691,-0.51838 0.72574,-0.1728 0.38014,-0.44926 0.20736,0.27647 c 0,0 -0.0691,1.07133 0.20735,1.07133 0.27647,0 1.45148,0.20735 1.45148,0.20735 l 1.38236,0.65662 0.34559,0.51839 1.00221,0 0.38015,0.34559 0.79486,-1.07133 0,-0.51839 -0.44927,0 -1.17501,-0.93309 -2.00442,-0.27647 -1.10589,-0.79486 0.38015,-0.93309 0.79486,0.10367 0.0691,-0.20735 -0.62206,-0.34559 0,-0.17279 1.10588,0 0.62207,-1.07133 -0.44927,-0.65663 -0.10368,-0.93309 -0.51838,0.0691 -0.65662,0.72574 -0.20736,0.89853 -1.07133,-0.20735 -0.34559,-0.62206 0.62207,-0.65662 0.69118,-0.62207 -0.0691,-0.27647 z"
       id="LA"
       inkscape:connector-curvature="0"
       style="fill:#ffaaaa" />
    <path
       d="m 493.47384,158.85662 -0.0346,-0.65662 2.24634,-0.86398 -0.27648,1.10589 -1.00221,1.31324 -0.13823,1.58972 0.17279,1.175 -0.62206,1.72795 -0.7603,0.65662 -0.51838,-1.58971 0.13823,-1.86619 0.55295,-1.45147 0.24191,-1.14045 z m 0.79486,9.7802 -20.11334,4.35443 -12.92507,1.83163 -2.31545,-0.13824 -0.89853,0.65662 -2.52281,0.0691 -2.90296,0.34559 -3.07575,0.34559 2.93752,-1.69339 0,-0.72574 0.51838,-0.72574 3.66326,-3.97428 1.3478,1.55515 1.31324,0.34559 0.86397,-0.38015 0.7603,-0.44926 0.86398,0.44926 1.3478,-0.48382 0.65662,-1.58972 0.89853,0.1728 1.00221,-0.72574 0.62207,0.17279 0.96765,-1.27868 0.10368,-0.72574 -0.34559,-0.44927 0.34559,-0.65662 1.83162,-4.25075 0.20736,-1.96987 0.4147,-0.17279 0.7603,0.82941 1.3478,-0.10367 0.65662,-2.62649 0.96766,-0.20735 0.34559,-0.93309 0.89853,-0.79486 0.44927,-0.79486 0.51838,-1.175 0.0346,-1.76251 3.38678,1.31324 c 0.24192,0.10368 0.24192,-1.65883 0.24192,-1.65883 l 1.41692,0.48382 -0.1728,0.89854 2.83384,1.00221 0.44927,0.62206 -0.31104,1.27868 -0.44926,0.44927 -0.1728,0.5875 0.1728,0.82942 0.69118,0.44927 1.3478,0.48382 1.00221,0.34559 1.69339,0.31103 0.7603,0.72574 1.10589,0.13824 0.31103,0.41471 -0.13824,1.62427 0.48383,0.38015 -0.1728,0.65662 0.41471,0.27647 -0.0691,0.48383 -0.93309,-0.0346 0.0346,0.55294 0.79486,0.51839 0.0345,0.48382 0.62207,0.62207 0.17279,0.86397 -0.89853,0.48383 0.55294,0.51838 2.00442,-0.5875 1.24413,2.14266 z"
       id="VA"
       inkscape:connector-curvature="0"
       style="fill:#ffd5d5" />
    <g
       id="DC"
       transform="matrix(0.34559,0,0,0.34559,146.88163,31.264792)">
      <path
         d="m 975.8,353.8 -1.1,-1.6 -1,-0.8 1.1,-1.6 2.2,1.5 -1.2,2.5 z"
         id="path58"
         inkscape:connector-curvature="0"
         style="fill:#d3d3d3" />
      <circle
         r="5"
         cy="351.79999"
         cx="975.29999"
         id="circle60"
         style="fill:#d3d3d3;stroke:#ffffff;stroke-width:4.34040356" />
    </g>
    <path
       style="fill:none;stroke:#a9a9a9;stroke-width:2"
       inkscape:connector-curvature="0"
       id="path67"
       d="m 279.93378,236.19966 0,19.00745 12.44124,15.55155 m -85.36073,-58.05912 49.76496,0 23.15453,23.50012 29.72074,0 18.31627,18.66186 0,15.89714" />
    <rect
       style="opacity:1;fill:none;fill-opacity:1;stroke:#000000;stroke-width:1.42499995;stroke-linecap:round;stroke-linejoin:round;stroke-miterlimit:10;stroke-dasharray:none;stroke-opacity:1"
       id="rect3562"
       width="306"
       height="9.5"
       x="212"
       y="307.36221" />
    <rect
       style="opacity:1;fill:none;fill-opacity:1;stroke:#000000;stroke-width:1.42499995;stroke-linecap:round;stroke-linejoin:round;stroke-miterlimit:10;stroke-dasharray:none;stroke-opacity:1"
       id="rect4364"
       width="2.6516504"
       height="20.85965"
       x="488.78757"
       y="302.12192" />
    <text
       xml:space="preserve"
       style="font-style:normal;font-weight:normal;font-size:15px;line-height:125%;font-family:sans-serif;letter-spacing:0px;word-spacing:0px;fill:#000000;fill-opacity:1;stroke:none;stroke-width:1px;stroke-linecap:butt;stroke-linejoin:miter;stroke-opacity:1"
       x="167.93787"
       y="317.67828"
       id="text4366"
       sodipodi:linespacing="125%"><tspan
         sodipodi:role="line"
         id="tspan4368"
         x="167.93787"
         y="317.67828">1789</tspan></text>
    <text
       xml:space="preserve"
       style="font-style:normal;font-weight:normal;font-size:15px;line-height:125%;font-family:sans-serif;letter-spacing:0px;word-spacing:0px;fill:#000000;fill-opacity:1;stroke:none;stroke-width:1px;stroke-linecap:butt;stroke-linejoin:miter;stroke-opacity:1"
       x="525.02679"
       y="318.03183"
       id="text4370"
       sodipodi:linespacing="125%"><tspan
         sodipodi:role="line"
         id="tspan4372"
         x="525.02679"
         y="318.03183">2015</tspan></text>
    <text
       xml:space="preserve"
       style="font-style:normal;font-weight:normal;font-size:15px;line-height:125%;font-family:sans-serif;letter-spacing:0px;word-spacing:0px;fill:#000000;fill-opacity:1;stroke:none;stroke-width:1px;stroke-linecap:butt;stroke-linejoin:miter;stroke-opacity:1"
       x="471.28665"
       y="338.5379"
       id="text4374"
       sodipodi:linespacing="125%"><tspan
         sodipodi:role="line"
         id="tspan4376"
         x="471.28665"
         y="338.5379">1980</tspan></text>
    <rect
       style="opacity:1;fill:none;fill-opacity:1;stroke:#000000;stroke-width:1.42499995;stroke-linecap:round;stroke-linejoin:round;stroke-miterlimit:10;stroke-dasharray:none;stroke-opacity:1"
       id="rect4408"
       width="58.336311"
       height="28.637825"
       x="341.53259"
       y="12.208134" />
    <rect
       style="opacity:1;fill:#231e64;fill-opacity:1;stroke:#000000;stroke-width:1.42499995;stroke-linecap:round;stroke-linejoin:round;stroke-miterlimit:10;stroke-dasharray:none;stroke-opacity:1"
       id="rect4408-5"
       width="58.336311"
       height="28.637825"
       x="283.15207"
       y="12.208134" />
    <path
       d="m 330.42448,181.0435 7.84489,0.38015 10.74785,0.38015 -0.79486,8.12136 -0.10367,6.28974 0.0346,0.72574 1.48603,1.31324 0.58751,0.27647 0.62206,0.10368 0.24191,-0.44927 0.31103,0.31103 0.58751,0.1728 0.55294,-0.24191 0.38015,0.13823 -0.10368,1.17501 1.48604,0.34559 0.93309,0.27647 1.38236,0.17279 0.7603,0.62207 1.10589,-0.55295 0.96765,0.13824 0.69118,0.96765 0.38015,0.10368 -0.0691,0.69118 1.07133,0.4147 0.96765,-0.62206 0.51839,0.13824 0.82941,0.0691 0.13824,0.65662 1.58971,0.69118 0.9331,-0.0691 0.69118,-1.41692 0.10367,0 0.38015,0.65662 1.5206,0.34559 1.14044,0.41471 1.14045,0.27647 0.72574,-0.27647 0.27647,-0.86398 1.27869,0 0.65662,0.27648 1.07133,-0.55295 0.24191,0 0.13823,0.38015 1.48604,0 0.82942,-0.44927 0.5875,0.10368 0.48383,0.65662 1.00221,0.58751 1.20956,0.38014 0.9331,0.48383 0.82941,0.55294 1.14045,-0.31103 0.65662,0.34559 0.17279,3.49046 0.10368,3.35223 0.24191,3.2831 0.1728,1.38236 0.93309,1.58971 0.38015,1.41692 1.3478,2.17722 0.1728,1.00221 0.17279,0.34559 -0.24191,2.59193 -0.93309,1.52059 0.34559,1.00221 -0.13824,0.86398 -0.27647,2.52281 -0.48383,0.93309 0.20736,1.52059 -1.96987,0.55295 -3.42134,1.55515 -0.34559,0.65662 -0.89853,0.65663 -0.72574,0.51838 -0.44927,0.27647 -1.96986,1.83163 -0.93309,0.72574 -1.83163,1.10589 -1.96986,0.82941 -2.17722,1.17501 -0.62206,0.51838 -2.00442,1.24413 -1.17501,0.20735 -1.3478,1.90075 -1.38236,0.10367 -0.34559,0.65662 0.79486,0.65663 -0.51839,1.90074 -0.44927,1.55516 -0.38015,1.3478 -0.27647,1.55515 0.27647,0.82942 0.62207,2.41913 0.34559,2.1081 0.62206,0.93309 -0.34559,0.51838 -1.07133,0.65663 -1.96986,-1.34781 -1.90075,-0.38014 -0.44927,0.17279 -1.10588,-0.20735 -1.45148,-1.07133 -1.79707,-0.38015 -2.62648,-1.17501 -0.72574,-1.3478 -0.44927,-2.24633 -1.10589,-0.65662 -0.20735,-0.79486 0.20735,-0.20736 0.10368,-1.175 -0.44927,-0.20736 -0.20735,-0.34559 0.44926,-1.52059 -0.55294,-0.79486 -1.10589,-0.44927 -1.175,-1.52059 -1.24413,-2.2809 -1.45148,-0.89853 0.0691,-0.65662 -1.83162,-4.25076 -0.27648,-1.45148 -0.62206,-0.65662 -0.0691,-0.51838 -2.07354,-1.83163 -0.89853,-1.07133 0,-0.38015 -0.89853,-0.72574 -2.35002,-0.38014 -2.55736,-0.20736 -1.07133,-0.79486 -1.55516,0.62207 -1.24412,0.51838 -0.79486,1.10589 -0.34559,1.27868 -1.52059,2.1081 -0.82942,0.82942 -0.89853,-0.34559 -0.62207,-0.38015 -0.65662,-0.20736 -1.3478,-0.79485 0,-0.20736 -0.62206,-0.65662 -1.79707,-0.72574 -2.55736,-2.6956 -0.79486,-1.62427 0,-2.79928 -1.10589,-2.24634 -0.17279,-0.93309 -0.55295,-0.34559 -0.38015,-0.72574 -1.72795,-0.72574 -0.44926,-0.55294 -2.45369,-2.73016 -0.44927,-1.10589 -1.62427,-0.79486 -0.51839,-1.52059 -0.89853,-1.00221 -0.65662,-0.1728 -0.20736,-1.62427 2.76472,0.24191 10.02211,0.93309 10.02211,0.55295 0.79486,-8.22504 1.3478,-19.21481 0.55295,-6.46253 0.48382,0 m 34.35165,80.90262 -0.20736,-2.45369 -0.93309,-2.48825 -0.20735,-2.41913 0.51838,-2.83384 1.14045,-2.38457 1.20956,-1.86618 1.10589,-1.24413 0.20736,0.0691 -1.65884,2.28089 -1.52059,2.24634 -0.69118,2.28089 -0.10368,1.79707 0.31103,2.1081 0.89854,2.48825 0.17279,1.79707 0.0691,0.51838 -0.31103,0.10368 z"
       id="TX"
       inkscape:connector-curvature="0"
       style="fill:#ff5555;stroke:#007000;stroke-width:0.60000002;stroke-miterlimit:4;stroke-dasharray:none;stroke-opacity:1" />
    <g
       id="g4438">
      <path
         inkscape:connector-curvature="0"
         id="path4426"
         d="m 347.48291,222.94929 0,4.94975 3.77934,-2.182 z"
         style="fill:#000000;fill-opacity:1;fill-rule:evenodd;stroke:#000000;stroke-width:1px;stroke-linecap:butt;stroke-linejoin:round;stroke-opacity:1" />
      <rect
         transform="matrix(0.8660254,-0.5,0.5,0.8660254,0,0)"
         y="370.97949"
         x="188.65596"
         height="4.1542525"
         width="1.016466"
         id="rect4436"
         style="opacity:1;fill:#000000;fill-opacity:1;stroke:none;stroke-width:0.60000002;stroke-linecap:round;stroke-linejoin:round;stroke-miterlimit:4;stroke-dasharray:none;stroke-opacity:1" />
    </g>
    <rect
       style="opacity:1;fill:#000000;fill-opacity:1;stroke:none;stroke-width:0.60000002;stroke-linecap:round;stroke-linejoin:round;stroke-miterlimit:4;stroke-dasharray:none;stroke-opacity:1"
       id="rect4444"
       width="2"
       height="125.5"
       x="552.5"
       y="70.362206" />
    <text
       xml:space="preserve"
       style="font-style:normal;font-weight:normal;font-size:15px;line-height:125%;font-family:sans-serif;letter-spacing:0px;word-spacing:0px;fill:#000000;fill-opacity:1;stroke:none;stroke-width:1px;stroke-linecap:butt;stroke-linejoin:miter;stroke-opacity:1"
       x="559"
       y="81.862206"
       id="text4446"
       sodipodi:linespacing="125%"><tspan
         sodipodi:role="line"
         id="tspan4448"
         x="559"
         y="81.862206">Texas</tspan></text>
    <flowRoot
       xml:space="preserve"
       id="flowRoot4450"
       style="font-style:normal;font-weight:normal;font-size:15px;line-height:125%;font-family:sans-serif;letter-spacing:0px;word-spacing:0px;fill:#000000;fill-opacity:1;stroke:none;stroke-width:1px;stroke-linecap:butt;stroke-linejoin:miter;stroke-opacity:1"
       transform="translate(-2.5,9.9999999)"><flowRegion
         id="flowRegion4452"><rect
           id="rect4454"
           width="133"
           height="38.000008"
           x="563.5"
           y="93.862206" /></flowRegion><flowPara
         id="flowPara4458">John Tower (R)</flowPara><flowPara
         id="flowPara4462">19 years in office</flowPara></flowRoot>    <text
       xml:space="preserve"
       style="font-style:normal;font-weight:normal;font-size:15px;line-height:125%;font-family:sans-serif;letter-spacing:0px;word-spacing:0px;fill:#000000;fill-opacity:1;stroke:none;stroke-width:1px;stroke-linecap:butt;stroke-linejoin:miter;stroke-opacity:1"
       x="560.5"
       y="170.86221"
       id="text4464"
       sodipodi:linespacing="125%"><tspan
         sodipodi:role="line"
         id="tspan4466"
         x="560.5"
         y="170.86221">Lloyd Bentsen (D)</tspan><tspan
         sodipodi:role="line"
         x="560.5"
         y="189.61221"
         id="tspan4468">9 years in office</tspan></text>
    <path
       style="fill:#000000;fill-opacity:1;fill-rule:evenodd;stroke:none;stroke-width:1px;stroke-linecap:butt;stroke-linejoin:miter;stroke-opacity:1"
       d="m 342.75,357.11221 0,49.07244 c 0,0 27.53385,-13.73794 41.13425,-20.92795 2.79222,-1.47614 10.61264,-4.51557 0.54124,-8.84026 C 373.58901,371.76322 342.75,357.11221 342.75,357.11221 Z"
       id="path4476"
       inkscape:connector-curvature="0"
       sodipodi:nodetypes="ccssc" />
    <text
       xml:space="preserve"
       style="font-style:normal;font-weight:normal;font-size:15px;line-height:125%;font-family:sans-serif;letter-spacing:0px;word-spacing:0px;fill:#000000;fill-opacity:1;stroke:none;stroke-width:1px;stroke-linecap:butt;stroke-linejoin:miter;stroke-opacity:1"
       x="-397.0607"
       y="337.97485"
       id="text4478"
       sodipodi:linespacing="125%"
       transform="matrix(0,-1,1,0,0,0)"><tspan
         sodipodi:role="line"
         id="tspan4480"
         x="-397.0607"
         y="337.97485"
         style="fill:#000000;fill-opacity:1">play</tspan></text>
  </g>
</svg>
